<?xml version="1.0" encoding="UTF-8"?>
<!DOCTYPE svg PUBLIC "-//W3C//DTD SVG 1.1//EN" "http://www.w3.org/Graphics/SVG/1.1/DTD/svg11.dtd">
<svg width="160mm" height="90mm" viewBox="0 0 16000 9000">
 <path fill="rgb(255,255,255)" stroke="none" d="M 8000,8999 L 0,8999 0,0 15999,0 15999,8999 8000,8999 Z"/>
 <path fill="none" stroke="rgb(179,179,179)" stroke-linejoin="round" d="M 8931,7752 L 2503,7752 2503,2643 15359,2643 15359,7752 8931,7752 Z"/>
 <path fill="none" stroke="rgb(179,179,179)" stroke-linejoin="round" d="M 15359,7751 L 2503,7751"/>
 <path fill="none" stroke="rgb(179,179,179)" stroke-linejoin="round" d="M 15359,7240 L 2503,7240"/>
 <path fill="none" stroke="rgb(179,179,179)" stroke-linejoin="round" d="M 15359,6729 L 2503,6729"/>
 <path fill="none" stroke="rgb(179,179,179)" stroke-linejoin="round" d="M 15359,6218 L 2503,6218"/>
 <path fill="none" stroke="rgb(179,179,179)" stroke-linejoin="round" d="M 15359,5707 L 2503,5707"/>
 <path fill="none" stroke="rgb(179,179,179)" stroke-linejoin="round" d="M 15359,5196 L 2503,5196"/>
 <path fill="none" stroke="rgb(179,179,179)" stroke-linejoin="round" d="M 15359,4685 L 2503,4685"/>
 <path fill="none" stroke="rgb(179,179,179)" stroke-linejoin="round" d="M 15359,4175 L 2503,4175"/>
 <path fill="none" stroke="rgb(179,179,179)" stroke-linejoin="round" d="M 15359,3664 L 2503,3664"/>
 <path fill="none" stroke="rgb(179,179,179)" stroke-linejoin="round" d="M 15359,3153 L 2503,3153"/>
 <path fill="none" stroke="rgb(179,179,179)" stroke-linejoin="round" d="M 15359,2642 L 2503,2642"/>
 <path fill="none" stroke="rgb(179,179,179)" stroke-linejoin="round" d="M 2503,7901 L 2503,7751"/>
 <path fill="none" stroke="rgb(179,179,179)" stroke-linejoin="round" d="M 2503,7901 L 2503,7751"/>
 <path fill="none" stroke="rgb(179,179,179)" stroke-linejoin="round" d="M 4339,7901 L 4339,7751"/>
 <path fill="none" stroke="rgb(179,179,179)" stroke-linejoin="round" d="M 4339,7901 L 4339,7751"/>
 <path fill="none" stroke="rgb(179,179,179)" stroke-linejoin="round" d="M 6176,7901 L 6176,7751"/>
 <path fill="none" stroke="rgb(179,179,179)" stroke-linejoin="round" d="M 6176,7901 L 6176,7751"/>
 <path fill="none" stroke="rgb(179,179,179)" stroke-linejoin="round" d="M 8012,7901 L 8012,7751"/>
 <path fill="none" stroke="rgb(179,179,179)" stroke-linejoin="round" d="M 8012,7901 L 8012,7751"/>
 <path fill="none" stroke="rgb(179,179,179)" stroke-linejoin="round" d="M 9848,7901 L 9848,7751"/>
 <path fill="none" stroke="rgb(179,179,179)" stroke-linejoin="round" d="M 9848,7901 L 9848,7751"/>
 <path fill="none" stroke="rgb(179,179,179)" stroke-linejoin="round" d="M 11685,7901 L 11685,7751"/>
 <path fill="none" stroke="rgb(179,179,179)" stroke-linejoin="round" d="M 11685,7901 L 11685,7751"/>
 <path fill="none" stroke="rgb(179,179,179)" stroke-linejoin="round" d="M 13522,7901 L 13522,7751"/>
 <path fill="none" stroke="rgb(179,179,179)" stroke-linejoin="round" d="M 13522,7901 L 13522,7751"/>
 <path fill="none" stroke="rgb(179,179,179)" stroke-linejoin="round" d="M 15359,7901 L 15359,7751"/>
 <path fill="none" stroke="rgb(179,179,179)" stroke-linejoin="round" d="M 15359,7901 L 15359,7751"/>
 <path fill="none" stroke="rgb(179,179,179)" stroke-linejoin="round" d="M 2503,7751 L 15359,7751"/>
 <path fill="none" stroke="rgb(179,179,179)" stroke-linejoin="round" d="M 2353,7751 L 2503,7751"/>
 <path fill="none" stroke="rgb(179,179,179)" stroke-linejoin="round" d="M 2353,7751 L 2503,7751"/>
 <path fill="none" stroke="rgb(179,179,179)" stroke-linejoin="round" d="M 2353,7240 L 2503,7240"/>
 <path fill="none" stroke="rgb(179,179,179)" stroke-linejoin="round" d="M 2353,7240 L 2503,7240"/>
 <path fill="none" stroke="rgb(179,179,179)" stroke-linejoin="round" d="M 2353,6729 L 2503,6729"/>
 <path fill="none" stroke="rgb(179,179,179)" stroke-linejoin="round" d="M 2353,6729 L 2503,6729"/>
 <path fill="none" stroke="rgb(179,179,179)" stroke-linejoin="round" d="M 2353,6218 L 2503,6218"/>
 <path fill="none" stroke="rgb(179,179,179)" stroke-linejoin="round" d="M 2353,6218 L 2503,6218"/>
 <path fill="none" stroke="rgb(179,179,179)" stroke-linejoin="round" d="M 2353,5707 L 2503,5707"/>
 <path fill="none" stroke="rgb(179,179,179)" stroke-linejoin="round" d="M 2353,5707 L 2503,5707"/>
 <path fill="none" stroke="rgb(179,179,179)" stroke-linejoin="round" d="M 2353,5196 L 2503,5196"/>
 <path fill="none" stroke="rgb(179,179,179)" stroke-linejoin="round" d="M 2353,5196 L 2503,5196"/>
 <path fill="none" stroke="rgb(179,179,179)" stroke-linejoin="round" d="M 2353,4685 L 2503,4685"/>
 <path fill="none" stroke="rgb(179,179,179)" stroke-linejoin="round" d="M 2353,4685 L 2503,4685"/>
 <path fill="none" stroke="rgb(179,179,179)" stroke-linejoin="round" d="M 2353,4175 L 2503,4175"/>
 <path fill="none" stroke="rgb(179,179,179)" stroke-linejoin="round" d="M 2353,4175 L 2503,4175"/>
 <path fill="none" stroke="rgb(179,179,179)" stroke-linejoin="round" d="M 2353,3664 L 2503,3664"/>
 <path fill="none" stroke="rgb(179,179,179)" stroke-linejoin="round" d="M 2353,3664 L 2503,3664"/>
 <path fill="none" stroke="rgb(179,179,179)" stroke-linejoin="round" d="M 2353,3153 L 2503,3153"/>
 <path fill="none" stroke="rgb(179,179,179)" stroke-linejoin="round" d="M 2353,3153 L 2503,3153"/>
 <path fill="none" stroke="rgb(179,179,179)" stroke-linejoin="round" d="M 2353,2642 L 2503,2642"/>
 <path fill="none" stroke="rgb(179,179,179)" stroke-linejoin="round" d="M 2353,2642 L 2503,2642"/>
 <path fill="none" stroke="rgb(179,179,179)" stroke-linejoin="round" d="M 2503,7751 L 2503,2642"/>
 <path fill="rgb(0,69,134)" stroke="none" d="M 13751,7751 L 14211,7751 14211,6889 13751,6889 13751,7751 Z"/>
 <path fill="rgb(0,69,134)" stroke="none" d="M 11915,7751 L 12374,7751 12374,7018 11915,7018 11915,7751 Z"/>
 <path fill="rgb(0,69,134)" stroke="none" d="M 10078,7751 L 10537,7751 10537,7146 10078,7146 10078,7751 Z"/>
 <path fill="rgb(0,69,134)" stroke="none" d="M 8241,7751 L 8700,7751 8700,7274 8241,7274 8241,7751 Z"/>
 <path fill="rgb(0,69,134)" stroke="none" d="M 6406,7751 L 6865,7751 6865,7400 6406,7400 6406,7751 Z"/>
 <path fill="rgb(0,69,134)" stroke="none" d="M 4569,7751 L 5028,7751 5028,7522 4569,7522 4569,7751 Z"/>
 <path fill="rgb(0,69,134)" stroke="none" d="M 2732,7751 L 3191,7751 3191,7642 2732,7642 2732,7751 Z"/>
 <path fill="rgb(255,66,14)" stroke="none" d="M 14211,7751 L 14670,7751 14670,6135 14211,6135 14211,7751 Z"/>
 <path fill="rgb(255,66,14)" stroke="none" d="M 12374,7751 L 12833,7751 12833,6378 12374,6378 12374,7751 Z"/>
 <path fill="rgb(255,66,14)" stroke="none" d="M 10537,7751 L 10996,7751 10996,6618 10537,6618 10537,7751 Z"/>
 <path fill="rgb(255,66,14)" stroke="none" d="M 8700,7751 L 9160,7751 9160,6858 8700,6858 8700,7751 Z"/>
 <path fill="rgb(255,66,14)" stroke="none" d="M 6865,7751 L 7324,7751 7324,7095 6865,7095 6865,7751 Z"/>
 <path fill="rgb(255,66,14)" stroke="none" d="M 5028,7751 L 5487,7751 5487,7325 5028,7325 5028,7751 Z"/>
 <path fill="rgb(255,66,14)" stroke="none" d="M 3191,7751 L 3650,7751 3650,7548 3191,7548 3191,7751 Z"/>
 <path fill="rgb(255,211,32)" stroke="none" d="M 14670,7751 L 15129,7751 15129,3301 14670,3301 14670,7751 Z"/>
 <path fill="rgb(255,211,32)" stroke="none" d="M 12833,7751 L 13292,7751 13292,3968 12833,3968 12833,7751 Z"/>
 <path fill="rgb(255,211,32)" stroke="none" d="M 10996,7751 L 11455,7751 11455,4626 10996,4626 10996,7751 Z"/>
 <path fill="rgb(255,211,32)" stroke="none" d="M 9160,7751 L 9619,7751 9619,5285 9160,5285 9160,7751 Z"/>
 <path fill="rgb(255,211,32)" stroke="none" d="M 7324,7751 L 7783,7751 7783,5935 7324,5935 7324,7751 Z"/>
 <path fill="rgb(255,211,32)" stroke="none" d="M 5487,7751 L 5946,7751 5946,6569 5487,6569 5487,7751 Z"/>
 <text class="TextShape"><tspan class="TextParagraph" font-family="Arial" font-size="353px" font-weight="400"><tspan class="TextPosition" x="2680" y="8319"><tspan fill="rgb(0,0,0)" stroke="none">5.00E+06</tspan></tspan></tspan></text>
 <text class="TextShape"><tspan class="TextParagraph" font-family="Arial" font-size="353px" font-weight="400"><tspan class="TextPosition" x="4517" y="8319"><tspan fill="rgb(0,0,0)" stroke="none">1.00E+07</tspan></tspan></tspan></text>
 <text class="TextShape"><tspan class="TextParagraph" font-family="Arial" font-size="353px" font-weight="400"><tspan class="TextPosition" x="6353" y="8319"><tspan fill="rgb(0,0,0)" stroke="none">1.50E+07</tspan></tspan></tspan></text>
 <text class="TextShape"><tspan class="TextParagraph" font-family="Arial" font-size="353px" font-weight="400"><tspan class="TextPosition" x="8190" y="8319"><tspan fill="rgb(0,0,0)" stroke="none">2.00E+07</tspan></tspan></tspan></text>
 <text class="TextShape"><tspan class="TextParagraph" font-family="Arial" font-size="353px" font-weight="400"><tspan class="TextPosition" x="10027" y="8319"><tspan fill="rgb(0,0,0)" stroke="none">2.50E+07</tspan></tspan></tspan></text>
 <text class="TextShape"><tspan class="TextParagraph" font-family="Arial" font-size="353px" font-weight="400"><tspan class="TextPosition" x="11863" y="8319"><tspan fill="rgb(0,0,0)" stroke="none">3.00E+07</tspan></tspan></tspan></text>
 <text class="TextShape"><tspan class="TextParagraph" font-family="Arial" font-size="353px" font-weight="400"><tspan class="TextPosition" x="13700" y="8319"><tspan fill="rgb(0,0,0)" stroke="none">3.50E+07</tspan></tspan></tspan></text>
 <text class="TextShape"><tspan class="TextParagraph" font-family="Arial" font-size="353px" font-weight="400"><tspan class="TextPosition" x="771" y="7872"><tspan fill="rgb(0,0,0)" stroke="none">0.00E+00</tspan></tspan></tspan></text>
 <text class="TextShape"><tspan class="TextParagraph" font-family="Arial" font-size="353px" font-weight="400"><tspan class="TextPosition" x="771" y="7361"><tspan fill="rgb(0,0,0)" stroke="none">5.00E+08</tspan></tspan></tspan></text>
 <text class="TextShape"><tspan class="TextParagraph" font-family="Arial" font-size="353px" font-weight="400"><tspan class="TextPosition" x="771" y="6850"><tspan fill="rgb(0,0,0)" stroke="none">1.00E+09</tspan></tspan></tspan></text>
 <text class="TextShape"><tspan class="TextParagraph" font-family="Arial" font-size="353px" font-weight="400"><tspan class="TextPosition" x="771" y="6339"><tspan fill="rgb(0,0,0)" stroke="none">1.50E+09</tspan></tspan></tspan></text>
 <text class="TextShape"><tspan class="TextParagraph" font-family="Arial" font-size="353px" font-weight="400"><tspan class="TextPosition" x="771" y="5828"><tspan fill="rgb(0,0,0)" stroke="none">2.00E+09</tspan></tspan></tspan></text>
 <text class="TextShape"><tspan class="TextParagraph" font-family="Arial" font-size="353px" font-weight="400"><tspan class="TextPosition" x="771" y="5317"><tspan fill="rgb(0,0,0)" stroke="none">2.50E+09</tspan></tspan></tspan></text>
 <text class="TextShape"><tspan class="TextParagraph" font-family="Arial" font-size="353px" font-weight="400"><tspan class="TextPosition" x="771" y="4806"><tspan fill="rgb(0,0,0)" stroke="none">3.00E+09</tspan></tspan></tspan></text>
 <text class="TextShape"><tspan class="TextParagraph" font-family="Arial" font-size="353px" font-weight="400"><tspan class="TextPosition" x="771" y="4295"><tspan fill="rgb(0,0,0)" stroke="none">3.50E+09</tspan></tspan></tspan></text>
 <text class="TextShape"><tspan class="TextParagraph" font-family="Arial" font-size="353px" font-weight="400"><tspan class="TextPosition" x="771" y="3784"><tspan fill="rgb(0,0,0)" stroke="none">4.00E+09</tspan></tspan></tspan></text>
 <text class="TextShape"><tspan class="TextParagraph" font-family="Arial" font-size="353px" font-weight="400"><tspan class="TextPosition" x="771" y="3273"><tspan fill="rgb(0,0,0)" stroke="none">4.50E+09</tspan></tspan></tspan></text>
 <text class="TextShape"><tspan class="TextParagraph" font-family="Arial" font-size="353px" font-weight="400"><tspan class="TextPosition" x="771" y="2762"><tspan fill="rgb(0,0,0)" stroke="none">5.00E+09</tspan></tspan></tspan></text>
 <text class="TextShape"><tspan class="TextParagraph" font-family="Arial" font-size="459px" font-weight="400"><tspan class="TextPosition" x="5989" y="877"><tspan fill="rgb(0,0,0)" stroke="none">Binary Comparisons</tspan></tspan></tspan></text>
 <path fill="rgb(255,211,32)" stroke="none" d="M 3650,7751 L 4110,7751 4110,7185 3650,7185 3650,7751 Z"/>
 <path fill="rgb(0,69,134)" stroke="none" d="M 3567,1889 L 3462,1889 3462,1678 3673,1678 3673,1889 3567,1889 Z"/>
 <path fill="rgb(255,66,14)" stroke="none" d="M 6070,1889 L 5965,1889 5965,1678 6176,1678 6176,1889 6070,1889 Z"/>
 <text class="TextShape"><tspan class="TextParagraph" font-family="Arial" font-size="353px" font-weight="400"><tspan class="TextPosition" x="3773" y="1903"><tspan fill="rgb(0,0,0)" stroke="none">Binary Insert</tspan></tspan></tspan></text>
 <text class="TextShape"><tspan class="TextParagraph" font-family="Arial" font-size="353px" font-weight="400"><tspan class="TextPosition" x="6276" y="1903"><tspan fill="rgb(0,0,0)" stroke="none">Binary Deletemin</tspan></tspan></tspan></text>
 <text class="TextShape"><tspan class="TextParagraph" font-family="Arial" font-size="353px" font-weight="400"><tspan class="TextPosition" x="9439" y="1903"><tspan fill="rgb(0,0,0)" stroke="none">Binary Decreasekey</tspan></tspan></tspan></text>
 <path fill="rgb(255,211,32)" stroke="none" d="M 9234,1889 L 9128,1889 9128,1678 9339,1678 9339,1889 9234,1889 Z"/>
</svg>