<?xml version="1.0" encoding="UTF-8"?>
<!DOCTYPE svg PUBLIC "-//W3C//DTD SVG 1.1//EN" "http://www.w3.org/Graphics/SVG/1.1/DTD/svg11.dtd">
<svg width="160mm" height="90mm" viewBox="0 0 16000 9000">
 <path fill="rgb(255,255,255)" stroke="none" d="M 8000,8999 L 0,8999 0,0 15999,0 15999,8999 8000,8999 Z"/>
 <path fill="none" stroke="rgb(179,179,179)" stroke-linejoin="round" d="M 8586,6793 L 1952,6793 1952,1860 15221,1860 15221,6793 8586,6793 Z"/>
 <path fill="none" stroke="rgb(179,179,179)" stroke-linejoin="round" d="M 15221,6792 L 1952,6792"/>
 <path fill="none" stroke="rgb(179,179,179)" stroke-linejoin="round" d="M 15221,5969 L 1952,5969"/>
 <path fill="none" stroke="rgb(179,179,179)" stroke-linejoin="round" d="M 15221,5147 L 1952,5147"/>
 <path fill="none" stroke="rgb(179,179,179)" stroke-linejoin="round" d="M 15221,4326 L 1952,4326"/>
 <path fill="none" stroke="rgb(179,179,179)" stroke-linejoin="round" d="M 15221,3503 L 1952,3503"/>
 <path fill="none" stroke="rgb(179,179,179)" stroke-linejoin="round" d="M 15221,2681 L 1952,2681"/>
 <path fill="none" stroke="rgb(179,179,179)" stroke-linejoin="round" d="M 15221,1859 L 1952,1859"/>
 <path fill="none" stroke="rgb(179,179,179)" stroke-linejoin="round" d="M 1952,6942 L 1952,6792"/>
 <path fill="none" stroke="rgb(179,179,179)" stroke-linejoin="round" d="M 1952,6942 L 1952,6792"/>
 <path fill="none" stroke="rgb(179,179,179)" stroke-linejoin="round" d="M 2615,6942 L 2615,6792"/>
 <path fill="none" stroke="rgb(179,179,179)" stroke-linejoin="round" d="M 2615,6942 L 2615,6792"/>
 <path fill="none" stroke="rgb(179,179,179)" stroke-linejoin="round" d="M 3279,6942 L 3279,6792"/>
 <path fill="none" stroke="rgb(179,179,179)" stroke-linejoin="round" d="M 3279,6942 L 3279,6792"/>
 <path fill="none" stroke="rgb(179,179,179)" stroke-linejoin="round" d="M 3942,6942 L 3942,6792"/>
 <path fill="none" stroke="rgb(179,179,179)" stroke-linejoin="round" d="M 3942,6942 L 3942,6792"/>
 <path fill="none" stroke="rgb(179,179,179)" stroke-linejoin="round" d="M 4606,6942 L 4606,6792"/>
 <path fill="none" stroke="rgb(179,179,179)" stroke-linejoin="round" d="M 4606,6942 L 4606,6792"/>
 <path fill="none" stroke="rgb(179,179,179)" stroke-linejoin="round" d="M 5269,6942 L 5269,6792"/>
 <path fill="none" stroke="rgb(179,179,179)" stroke-linejoin="round" d="M 5269,6942 L 5269,6792"/>
 <path fill="none" stroke="rgb(179,179,179)" stroke-linejoin="round" d="M 5933,6942 L 5933,6792"/>
 <path fill="none" stroke="rgb(179,179,179)" stroke-linejoin="round" d="M 5933,6942 L 5933,6792"/>
 <path fill="none" stroke="rgb(179,179,179)" stroke-linejoin="round" d="M 6596,6942 L 6596,6792"/>
 <path fill="none" stroke="rgb(179,179,179)" stroke-linejoin="round" d="M 6596,6942 L 6596,6792"/>
 <path fill="none" stroke="rgb(179,179,179)" stroke-linejoin="round" d="M 7260,6942 L 7260,6792"/>
 <path fill="none" stroke="rgb(179,179,179)" stroke-linejoin="round" d="M 7260,6942 L 7260,6792"/>
 <path fill="none" stroke="rgb(179,179,179)" stroke-linejoin="round" d="M 7923,6942 L 7923,6792"/>
 <path fill="none" stroke="rgb(179,179,179)" stroke-linejoin="round" d="M 7923,6942 L 7923,6792"/>
 <path fill="none" stroke="rgb(179,179,179)" stroke-linejoin="round" d="M 8586,6942 L 8586,6792"/>
 <path fill="none" stroke="rgb(179,179,179)" stroke-linejoin="round" d="M 8586,6942 L 8586,6792"/>
 <path fill="none" stroke="rgb(179,179,179)" stroke-linejoin="round" d="M 9249,6942 L 9249,6792"/>
 <path fill="none" stroke="rgb(179,179,179)" stroke-linejoin="round" d="M 9249,6942 L 9249,6792"/>
 <path fill="none" stroke="rgb(179,179,179)" stroke-linejoin="round" d="M 9913,6942 L 9913,6792"/>
 <path fill="none" stroke="rgb(179,179,179)" stroke-linejoin="round" d="M 9913,6942 L 9913,6792"/>
 <path fill="none" stroke="rgb(179,179,179)" stroke-linejoin="round" d="M 10576,6942 L 10576,6792"/>
 <path fill="none" stroke="rgb(179,179,179)" stroke-linejoin="round" d="M 10576,6942 L 10576,6792"/>
 <path fill="none" stroke="rgb(179,179,179)" stroke-linejoin="round" d="M 11240,6942 L 11240,6792"/>
 <path fill="none" stroke="rgb(179,179,179)" stroke-linejoin="round" d="M 11240,6942 L 11240,6792"/>
 <path fill="none" stroke="rgb(179,179,179)" stroke-linejoin="round" d="M 11903,6942 L 11903,6792"/>
 <path fill="none" stroke="rgb(179,179,179)" stroke-linejoin="round" d="M 11903,6942 L 11903,6792"/>
 <path fill="none" stroke="rgb(179,179,179)" stroke-linejoin="round" d="M 12567,6942 L 12567,6792"/>
 <path fill="none" stroke="rgb(179,179,179)" stroke-linejoin="round" d="M 12567,6942 L 12567,6792"/>
 <path fill="none" stroke="rgb(179,179,179)" stroke-linejoin="round" d="M 13230,6942 L 13230,6792"/>
 <path fill="none" stroke="rgb(179,179,179)" stroke-linejoin="round" d="M 13230,6942 L 13230,6792"/>
 <path fill="none" stroke="rgb(179,179,179)" stroke-linejoin="round" d="M 13894,6942 L 13894,6792"/>
 <path fill="none" stroke="rgb(179,179,179)" stroke-linejoin="round" d="M 13894,6942 L 13894,6792"/>
 <path fill="none" stroke="rgb(179,179,179)" stroke-linejoin="round" d="M 14557,6942 L 14557,6792"/>
 <path fill="none" stroke="rgb(179,179,179)" stroke-linejoin="round" d="M 14557,6942 L 14557,6792"/>
 <path fill="none" stroke="rgb(179,179,179)" stroke-linejoin="round" d="M 15221,6942 L 15221,6792"/>
 <path fill="none" stroke="rgb(179,179,179)" stroke-linejoin="round" d="M 15221,6942 L 15221,6792"/>
 <path fill="none" stroke="rgb(179,179,179)" stroke-linejoin="round" d="M 1952,6792 L 15221,6792"/>
 <path fill="none" stroke="rgb(179,179,179)" stroke-linejoin="round" d="M 1802,6792 L 1952,6792"/>
 <path fill="none" stroke="rgb(179,179,179)" stroke-linejoin="round" d="M 1802,6792 L 1952,6792"/>
 <path fill="none" stroke="rgb(179,179,179)" stroke-linejoin="round" d="M 1802,5969 L 1952,5969"/>
 <path fill="none" stroke="rgb(179,179,179)" stroke-linejoin="round" d="M 1802,5969 L 1952,5969"/>
 <path fill="none" stroke="rgb(179,179,179)" stroke-linejoin="round" d="M 1802,5147 L 1952,5147"/>
 <path fill="none" stroke="rgb(179,179,179)" stroke-linejoin="round" d="M 1802,5147 L 1952,5147"/>
 <path fill="none" stroke="rgb(179,179,179)" stroke-linejoin="round" d="M 1802,4326 L 1952,4326"/>
 <path fill="none" stroke="rgb(179,179,179)" stroke-linejoin="round" d="M 1802,4326 L 1952,4326"/>
 <path fill="none" stroke="rgb(179,179,179)" stroke-linejoin="round" d="M 1802,3503 L 1952,3503"/>
 <path fill="none" stroke="rgb(179,179,179)" stroke-linejoin="round" d="M 1802,3503 L 1952,3503"/>
 <path fill="none" stroke="rgb(179,179,179)" stroke-linejoin="round" d="M 1802,2681 L 1952,2681"/>
 <path fill="none" stroke="rgb(179,179,179)" stroke-linejoin="round" d="M 1802,2681 L 1952,2681"/>
 <path fill="none" stroke="rgb(179,179,179)" stroke-linejoin="round" d="M 1802,1859 L 1952,1859"/>
 <path fill="none" stroke="rgb(179,179,179)" stroke-linejoin="round" d="M 1802,1859 L 1952,1859"/>
 <path fill="none" stroke="rgb(179,179,179)" stroke-linejoin="round" d="M 1952,6792 L 1952,1859"/>
 <path fill="rgb(255,66,14)" stroke="none" d="M 14723,6792 L 15055,6792 15055,2842 14723,2842 14723,6792 Z"/>
 <path fill="rgb(255,66,14)" stroke="none" d="M 14059,6792 L 14391,6792 14391,3207 14059,3207 14059,6792 Z"/>
 <path fill="rgb(255,66,14)" stroke="none" d="M 13396,6792 L 13728,6792 13728,3573 13396,3573 13396,6792 Z"/>
 <path fill="rgb(255,66,14)" stroke="none" d="M 12732,6792 L 13064,6792 13064,3990 12732,3990 12732,6792 Z"/>
 <path fill="rgb(255,66,14)" stroke="none" d="M 12069,6792 L 12401,6792 12401,4304 12069,4304 12069,6792 Z"/>
 <path fill="rgb(255,66,14)" stroke="none" d="M 11405,6792 L 11737,6792 11737,4623 11405,4623 11405,6792 Z"/>
 <path fill="rgb(255,66,14)" stroke="none" d="M 10742,6792 L 11074,6792 11074,4924 10742,4924 10742,6792 Z"/>
 <path fill="rgb(255,66,14)" stroke="none" d="M 10078,6792 L 10410,6792 10410,5214 10078,5214 10078,6792 Z"/>
 <path fill="rgb(255,66,14)" stroke="none" d="M 9415,6792 L 9747,6792 9747,5451 9415,5451 9415,6792 Z"/>
 <path fill="rgb(255,66,14)" stroke="none" d="M 8751,6792 L 9083,6792 9083,5707 8751,5707 8751,6792 Z"/>
 <path fill="rgb(255,66,14)" stroke="none" d="M 8088,6792 L 8420,6792 8420,5919 8088,5919 8088,6792 Z"/>
 <path fill="rgb(255,66,14)" stroke="none" d="M 7425,6792 L 7757,6792 7757,6086 7425,6086 7425,6792 Z"/>
 <path fill="rgb(255,66,14)" stroke="none" d="M 6762,6792 L 7094,6792 7094,6227 6762,6227 6762,6792 Z"/>
 <path fill="rgb(255,66,14)" stroke="none" d="M 6098,6792 L 6430,6792 6430,6394 6098,6394 6098,6792 Z"/>
 <path fill="rgb(255,66,14)" stroke="none" d="M 5435,6792 L 5767,6792 5767,6510 5435,6510 5435,6792 Z"/>
 <path fill="rgb(255,66,14)" stroke="none" d="M 4771,6792 L 5103,6792 5103,6592 4771,6592 4771,6792 Z"/>
 <path fill="rgb(255,66,14)" stroke="none" d="M 4108,6792 L 4440,6792 4440,6676 4108,6676 4108,6792 Z"/>
 <path fill="rgb(255,66,14)" stroke="none" d="M 3444,6792 L 3776,6792 3776,6727 3444,6727 3444,6792 Z"/>
 <path fill="rgb(255,66,14)" stroke="none" d="M 2781,6792 L 3113,6792 3113,6779 2781,6779 2781,6792 Z"/>
 <text class="TextShape"><tspan class="TextParagraph" font-family="Arial" font-size="353px" font-weight="400"><tspan class="TextPosition" x="1912" y="7758"><tspan fill="rgb(0,0,0)" stroke="none">1000</tspan></tspan></tspan></text>
 <text class="TextShape"><tspan class="TextParagraph" font-family="Arial" font-size="353px" font-weight="400"><tspan class="TextPosition" x="2576" y="7360"><tspan fill="rgb(0,0,0)" stroke="none">2000</tspan></tspan></tspan></text>
 <text class="TextShape"><tspan class="TextParagraph" font-family="Arial" font-size="353px" font-weight="400"><tspan class="TextPosition" x="3239" y="7758"><tspan fill="rgb(0,0,0)" stroke="none">3000</tspan></tspan></tspan></text>
 <text class="TextShape"><tspan class="TextParagraph" font-family="Arial" font-size="353px" font-weight="400"><tspan class="TextPosition" x="3903" y="7360"><tspan fill="rgb(0,0,0)" stroke="none">4000</tspan></tspan></tspan></text>
 <text class="TextShape"><tspan class="TextParagraph" font-family="Arial" font-size="353px" font-weight="400"><tspan class="TextPosition" x="4566" y="7758"><tspan fill="rgb(0,0,0)" stroke="none">5000</tspan></tspan></tspan></text>
 <text class="TextShape"><tspan class="TextParagraph" font-family="Arial" font-size="353px" font-weight="400"><tspan class="TextPosition" x="5230" y="7360"><tspan fill="rgb(0,0,0)" stroke="none">6000</tspan></tspan></tspan></text>
 <text class="TextShape"><tspan class="TextParagraph" font-family="Arial" font-size="353px" font-weight="400"><tspan class="TextPosition" x="5893" y="7758"><tspan fill="rgb(0,0,0)" stroke="none">7000</tspan></tspan></tspan></text>
 <text class="TextShape"><tspan class="TextParagraph" font-family="Arial" font-size="353px" font-weight="400"><tspan class="TextPosition" x="6557" y="7360"><tspan fill="rgb(0,0,0)" stroke="none">8000</tspan></tspan></tspan></text>
 <text class="TextShape"><tspan class="TextParagraph" font-family="Arial" font-size="353px" font-weight="400"><tspan class="TextPosition" x="7220" y="7758"><tspan fill="rgb(0,0,0)" stroke="none">9000</tspan></tspan></tspan></text>
 <text class="TextShape"><tspan class="TextParagraph" font-family="Arial" font-size="353px" font-weight="400"><tspan class="TextPosition" x="7792" y="7360"><tspan fill="rgb(0,0,0)" stroke="none">10000</tspan></tspan></tspan></text>
 <text class="TextShape"><tspan class="TextParagraph" font-family="Arial" font-size="353px" font-weight="400"><tspan class="TextPosition" x="8455" y="7758"><tspan fill="rgb(0,0,0)" stroke="none">11000</tspan></tspan></tspan></text>
 <text class="TextShape"><tspan class="TextParagraph" font-family="Arial" font-size="353px" font-weight="400"><tspan class="TextPosition" x="9119" y="7360"><tspan fill="rgb(0,0,0)" stroke="none">12000</tspan></tspan></tspan></text>
 <text class="TextShape"><tspan class="TextParagraph" font-family="Arial" font-size="353px" font-weight="400"><tspan class="TextPosition" x="9782" y="7758"><tspan fill="rgb(0,0,0)" stroke="none">13000</tspan></tspan></tspan></text>
 <text class="TextShape"><tspan class="TextParagraph" font-family="Arial" font-size="353px" font-weight="400"><tspan class="TextPosition" x="10446" y="7360"><tspan fill="rgb(0,0,0)" stroke="none">14000</tspan></tspan></tspan></text>
 <text class="TextShape"><tspan class="TextParagraph" font-family="Arial" font-size="353px" font-weight="400"><tspan class="TextPosition" x="11109" y="7758"><tspan fill="rgb(0,0,0)" stroke="none">15000</tspan></tspan></tspan></text>
 <text class="TextShape"><tspan class="TextParagraph" font-family="Arial" font-size="353px" font-weight="400"><tspan class="TextPosition" x="11773" y="7360"><tspan fill="rgb(0,0,0)" stroke="none">16000</tspan></tspan></tspan></text>
 <text class="TextShape"><tspan class="TextParagraph" font-family="Arial" font-size="353px" font-weight="400"><tspan class="TextPosition" x="12436" y="7758"><tspan fill="rgb(0,0,0)" stroke="none">17000</tspan></tspan></tspan></text>
 <text class="TextShape"><tspan class="TextParagraph" font-family="Arial" font-size="353px" font-weight="400"><tspan class="TextPosition" x="13100" y="7360"><tspan fill="rgb(0,0,0)" stroke="none">18000</tspan></tspan></tspan></text>
 <text class="TextShape"><tspan class="TextParagraph" font-family="Arial" font-size="353px" font-weight="400"><tspan class="TextPosition" x="13763" y="7758"><tspan fill="rgb(0,0,0)" stroke="none">19000</tspan></tspan></tspan></text>
 <text class="TextShape"><tspan class="TextParagraph" font-family="Arial" font-size="353px" font-weight="400"><tspan class="TextPosition" x="14427" y="7360"><tspan fill="rgb(0,0,0)" stroke="none">20000</tspan></tspan></tspan></text>
 <text class="TextShape"><tspan class="TextParagraph" font-family="Arial" font-size="353px" font-weight="400"><tspan class="TextPosition" x="1517" y="6913"><tspan fill="rgb(0,0,0)" stroke="none">0</tspan></tspan></tspan></text>
 <text class="TextShape"><tspan class="TextParagraph" font-family="Arial" font-size="353px" font-weight="400"><tspan class="TextPosition" x="1517" y="6090"><tspan fill="rgb(0,0,0)" stroke="none">2</tspan></tspan></tspan></text>
 <text class="TextShape"><tspan class="TextParagraph" font-family="Arial" font-size="353px" font-weight="400"><tspan class="TextPosition" x="1517" y="5268"><tspan fill="rgb(0,0,0)" stroke="none">4</tspan></tspan></tspan></text>
 <text class="TextShape"><tspan class="TextParagraph" font-family="Arial" font-size="353px" font-weight="400"><tspan class="TextPosition" x="1517" y="4446"><tspan fill="rgb(0,0,0)" stroke="none">6</tspan></tspan></tspan></text>
 <text class="TextShape"><tspan class="TextParagraph" font-family="Arial" font-size="353px" font-weight="400"><tspan class="TextPosition" x="1517" y="3623"><tspan fill="rgb(0,0,0)" stroke="none">8</tspan></tspan></tspan></text>
 <text class="TextShape"><tspan class="TextParagraph" font-family="Arial" font-size="353px" font-weight="400"><tspan class="TextPosition" x="1332" y="2801"><tspan fill="rgb(0,0,0)" stroke="none">10</tspan></tspan></tspan></text>
 <text class="TextShape"><tspan class="TextParagraph" font-family="Arial" font-size="353px" font-weight="400"><tspan class="TextPosition" x="1332" y="1979"><tspan fill="rgb(0,0,0)" stroke="none">12</tspan></tspan></tspan></text>
 <text class="TextShape"><tspan class="TextParagraph" font-family="Arial" font-size="459px" font-weight="400"><tspan class="TextPosition" x="5843" y="877"><tspan fill="rgb(0,0,0)" stroke="none">Binary - Dense Graph</tspan></tspan></tspan></text>
 <text class="TextShape"><tspan class="TextParagraph" font-family="Arial" font-size="318px" font-weight="400"><tspan class="TextPosition" x="7895" y="8405"><tspan fill="rgb(0,0,0)" stroke="none">nodes</tspan></tspan></tspan></text>
 <text class="TextShape"><tspan class="TextParagraph" font-family="Arial" font-size="318px" font-weight="400"><tspan class="TextPosition" x="837" y="5358" transform="translate(837,5358) rotate(-90) translate(-837,-5358)"><tspan fill="rgb(0,0,0)" stroke="none">seconds</tspan></tspan></tspan></text>
 <path fill="rgb(255,66,14)" stroke="none" d="M 2117,6792 L 2449,6792 2449,6772 2117,6772 2117,6792 Z"/>
</svg>