<?xml version="1.0" encoding="UTF-8"?>
<!DOCTYPE svg PUBLIC "-//W3C//DTD SVG 1.1//EN" "http://www.w3.org/Graphics/SVG/1.1/DTD/svg11.dtd">
<svg width="160mm" height="90mm" viewBox="0 0 16000 9000">
 <path fill="rgb(255,255,255)" stroke="none" d="M 8000,8999 L 0,8999 0,0 15999,0 15999,8999 8000,8999 Z"/>
 <path fill="none" stroke="rgb(179,179,179)" stroke-linejoin="round" d="M 7537,6522 L 1952,6522 1952,1860 13122,1860 13122,6522 7537,6522 Z"/>
 <path fill="none" stroke="rgb(179,179,179)" stroke-linejoin="round" d="M 13122,6521 L 1952,6521"/>
 <path fill="none" stroke="rgb(179,179,179)" stroke-linejoin="round" d="M 13122,5743 L 1952,5743"/>
 <path fill="none" stroke="rgb(179,179,179)" stroke-linejoin="round" d="M 13122,4966 L 1952,4966"/>
 <path fill="none" stroke="rgb(179,179,179)" stroke-linejoin="round" d="M 13122,4190 L 1952,4190"/>
 <path fill="none" stroke="rgb(179,179,179)" stroke-linejoin="round" d="M 13122,3413 L 1952,3413"/>
 <path fill="none" stroke="rgb(179,179,179)" stroke-linejoin="round" d="M 13122,2636 L 1952,2636"/>
 <path fill="none" stroke="rgb(179,179,179)" stroke-linejoin="round" d="M 13122,1859 L 1952,1859"/>
 <path fill="none" stroke="rgb(179,179,179)" stroke-linejoin="round" d="M 1952,6671 L 1952,6521"/>
 <path fill="none" stroke="rgb(179,179,179)" stroke-linejoin="round" d="M 1952,6671 L 1952,6521"/>
 <path fill="none" stroke="rgb(179,179,179)" stroke-linejoin="round" d="M 2510,6671 L 2510,6521"/>
 <path fill="none" stroke="rgb(179,179,179)" stroke-linejoin="round" d="M 2510,6671 L 2510,6521"/>
 <path fill="none" stroke="rgb(179,179,179)" stroke-linejoin="round" d="M 3069,6671 L 3069,6521"/>
 <path fill="none" stroke="rgb(179,179,179)" stroke-linejoin="round" d="M 3069,6671 L 3069,6521"/>
 <path fill="none" stroke="rgb(179,179,179)" stroke-linejoin="round" d="M 3627,6671 L 3627,6521"/>
 <path fill="none" stroke="rgb(179,179,179)" stroke-linejoin="round" d="M 3627,6671 L 3627,6521"/>
 <path fill="none" stroke="rgb(179,179,179)" stroke-linejoin="round" d="M 4186,6671 L 4186,6521"/>
 <path fill="none" stroke="rgb(179,179,179)" stroke-linejoin="round" d="M 4186,6671 L 4186,6521"/>
 <path fill="none" stroke="rgb(179,179,179)" stroke-linejoin="round" d="M 4744,6671 L 4744,6521"/>
 <path fill="none" stroke="rgb(179,179,179)" stroke-linejoin="round" d="M 4744,6671 L 4744,6521"/>
 <path fill="none" stroke="rgb(179,179,179)" stroke-linejoin="round" d="M 5303,6671 L 5303,6521"/>
 <path fill="none" stroke="rgb(179,179,179)" stroke-linejoin="round" d="M 5303,6671 L 5303,6521"/>
 <path fill="none" stroke="rgb(179,179,179)" stroke-linejoin="round" d="M 5861,6671 L 5861,6521"/>
 <path fill="none" stroke="rgb(179,179,179)" stroke-linejoin="round" d="M 5861,6671 L 5861,6521"/>
 <path fill="none" stroke="rgb(179,179,179)" stroke-linejoin="round" d="M 6420,6671 L 6420,6521"/>
 <path fill="none" stroke="rgb(179,179,179)" stroke-linejoin="round" d="M 6420,6671 L 6420,6521"/>
 <path fill="none" stroke="rgb(179,179,179)" stroke-linejoin="round" d="M 6978,6671 L 6978,6521"/>
 <path fill="none" stroke="rgb(179,179,179)" stroke-linejoin="round" d="M 6978,6671 L 6978,6521"/>
 <path fill="none" stroke="rgb(179,179,179)" stroke-linejoin="round" d="M 7537,6671 L 7537,6521"/>
 <path fill="none" stroke="rgb(179,179,179)" stroke-linejoin="round" d="M 7537,6671 L 7537,6521"/>
 <path fill="none" stroke="rgb(179,179,179)" stroke-linejoin="round" d="M 8095,6671 L 8095,6521"/>
 <path fill="none" stroke="rgb(179,179,179)" stroke-linejoin="round" d="M 8095,6671 L 8095,6521"/>
 <path fill="none" stroke="rgb(179,179,179)" stroke-linejoin="round" d="M 8653,6671 L 8653,6521"/>
 <path fill="none" stroke="rgb(179,179,179)" stroke-linejoin="round" d="M 8653,6671 L 8653,6521"/>
 <path fill="none" stroke="rgb(179,179,179)" stroke-linejoin="round" d="M 9212,6671 L 9212,6521"/>
 <path fill="none" stroke="rgb(179,179,179)" stroke-linejoin="round" d="M 9212,6671 L 9212,6521"/>
 <path fill="none" stroke="rgb(179,179,179)" stroke-linejoin="round" d="M 9770,6671 L 9770,6521"/>
 <path fill="none" stroke="rgb(179,179,179)" stroke-linejoin="round" d="M 9770,6671 L 9770,6521"/>
 <path fill="none" stroke="rgb(179,179,179)" stroke-linejoin="round" d="M 10329,6671 L 10329,6521"/>
 <path fill="none" stroke="rgb(179,179,179)" stroke-linejoin="round" d="M 10329,6671 L 10329,6521"/>
 <path fill="none" stroke="rgb(179,179,179)" stroke-linejoin="round" d="M 10887,6671 L 10887,6521"/>
 <path fill="none" stroke="rgb(179,179,179)" stroke-linejoin="round" d="M 10887,6671 L 10887,6521"/>
 <path fill="none" stroke="rgb(179,179,179)" stroke-linejoin="round" d="M 11446,6671 L 11446,6521"/>
 <path fill="none" stroke="rgb(179,179,179)" stroke-linejoin="round" d="M 11446,6671 L 11446,6521"/>
 <path fill="none" stroke="rgb(179,179,179)" stroke-linejoin="round" d="M 12004,6671 L 12004,6521"/>
 <path fill="none" stroke="rgb(179,179,179)" stroke-linejoin="round" d="M 12004,6671 L 12004,6521"/>
 <path fill="none" stroke="rgb(179,179,179)" stroke-linejoin="round" d="M 12563,6671 L 12563,6521"/>
 <path fill="none" stroke="rgb(179,179,179)" stroke-linejoin="round" d="M 12563,6671 L 12563,6521"/>
 <path fill="none" stroke="rgb(179,179,179)" stroke-linejoin="round" d="M 13122,6671 L 13122,6521"/>
 <path fill="none" stroke="rgb(179,179,179)" stroke-linejoin="round" d="M 13122,6671 L 13122,6521"/>
 <path fill="none" stroke="rgb(179,179,179)" stroke-linejoin="round" d="M 1952,6521 L 13122,6521"/>
 <path fill="none" stroke="rgb(179,179,179)" stroke-linejoin="round" d="M 1802,6521 L 1952,6521"/>
 <path fill="none" stroke="rgb(179,179,179)" stroke-linejoin="round" d="M 1802,6521 L 1952,6521"/>
 <path fill="none" stroke="rgb(179,179,179)" stroke-linejoin="round" d="M 1802,5743 L 1952,5743"/>
 <path fill="none" stroke="rgb(179,179,179)" stroke-linejoin="round" d="M 1802,5743 L 1952,5743"/>
 <path fill="none" stroke="rgb(179,179,179)" stroke-linejoin="round" d="M 1802,4966 L 1952,4966"/>
 <path fill="none" stroke="rgb(179,179,179)" stroke-linejoin="round" d="M 1802,4966 L 1952,4966"/>
 <path fill="none" stroke="rgb(179,179,179)" stroke-linejoin="round" d="M 1802,4190 L 1952,4190"/>
 <path fill="none" stroke="rgb(179,179,179)" stroke-linejoin="round" d="M 1802,4190 L 1952,4190"/>
 <path fill="none" stroke="rgb(179,179,179)" stroke-linejoin="round" d="M 1802,3413 L 1952,3413"/>
 <path fill="none" stroke="rgb(179,179,179)" stroke-linejoin="round" d="M 1802,3413 L 1952,3413"/>
 <path fill="none" stroke="rgb(179,179,179)" stroke-linejoin="round" d="M 1802,2636 L 1952,2636"/>
 <path fill="none" stroke="rgb(179,179,179)" stroke-linejoin="round" d="M 1802,2636 L 1952,2636"/>
 <path fill="none" stroke="rgb(179,179,179)" stroke-linejoin="round" d="M 1802,1859 L 1952,1859"/>
 <path fill="none" stroke="rgb(179,179,179)" stroke-linejoin="round" d="M 1802,1859 L 1952,1859"/>
 <path fill="none" stroke="rgb(179,179,179)" stroke-linejoin="round" d="M 1952,6521 L 1952,1859"/>
 <path fill="rgb(0,69,134)" stroke="none" d="M 12656,6521 L 12842,6521 12842,2788 12656,2788 12656,6521 Z"/>
 <path fill="rgb(0,69,134)" stroke="none" d="M 12097,6521 L 12284,6521 12284,3133 12097,3133 12097,6521 Z"/>
 <path fill="rgb(0,69,134)" stroke="none" d="M 11539,6521 L 11725,6521 11725,3479 11539,3479 11539,6521 Z"/>
 <path fill="rgb(0,69,134)" stroke="none" d="M 10980,6521 L 11167,6521 11167,3873 10980,3873 10980,6521 Z"/>
 <path fill="rgb(0,69,134)" stroke="none" d="M 10422,6521 L 10608,6521 10608,4169 10422,4169 10422,6521 Z"/>
 <path fill="rgb(0,69,134)" stroke="none" d="M 9863,6521 L 10049,6521 10049,4473 9863,4473 9863,6521 Z"/>
 <path fill="rgb(0,69,134)" stroke="none" d="M 9305,6521 L 9491,6521 9491,4756 9305,4756 9305,6521 Z"/>
 <path fill="rgb(0,69,134)" stroke="none" d="M 8746,6521 L 8932,6521 8932,5030 8746,5030 8746,6521 Z"/>
 <path fill="rgb(0,69,134)" stroke="none" d="M 8188,6521 L 8374,6521 8374,5253 8188,5253 8188,6521 Z"/>
 <path fill="rgb(0,69,134)" stroke="none" d="M 7630,6521 L 7816,6521 7816,5496 7630,5496 7630,6521 Z"/>
 <path fill="rgb(0,69,134)" stroke="none" d="M 7072,6521 L 7258,6521 7258,5696 7072,5696 7072,6521 Z"/>
 <path fill="rgb(0,69,134)" stroke="none" d="M 6513,6521 L 6699,6521 6699,5854 6513,5854 6513,6521 Z"/>
 <path fill="rgb(0,69,134)" stroke="none" d="M 5954,6521 L 6141,6521 6141,5987 5954,5987 5954,6521 Z"/>
 <path fill="rgb(0,69,134)" stroke="none" d="M 5396,6521 L 5582,6521 5582,6145 5396,6145 5396,6521 Z"/>
 <path fill="rgb(0,69,134)" stroke="none" d="M 4837,6521 L 5024,6521 5024,6255 4837,6255 4837,6521 Z"/>
 <path fill="rgb(0,69,134)" stroke="none" d="M 4279,6521 L 4465,6521 4465,6332 4279,6332 4279,6521 Z"/>
 <path fill="rgb(0,69,134)" stroke="none" d="M 3720,6521 L 3906,6521 3906,6412 3720,6412 3720,6521 Z"/>
 <path fill="rgb(0,69,134)" stroke="none" d="M 3162,6521 L 3348,6521 3348,6459 3162,6459 3162,6521 Z"/>
 <path fill="rgb(0,69,134)" stroke="none" d="M 2603,6521 L 2789,6521 2789,6509 2603,6509 2603,6521 Z"/>
 <path fill="rgb(0,69,134)" stroke="none" d="M 2045,6521 L 2231,6521 2231,6502 2045,6502 2045,6521 Z"/>
 <path fill="rgb(255,66,14)" stroke="none" d="M 12842,6521 L 13028,6521 13028,3376 12842,3376 12842,6521 Z"/>
 <path fill="rgb(255,66,14)" stroke="none" d="M 12284,6521 L 12470,6521 12470,3697 12284,3697 12284,6521 Z"/>
 <path fill="rgb(255,66,14)" stroke="none" d="M 11725,6521 L 11911,6521 11911,4012 11725,4012 11725,6521 Z"/>
 <path fill="rgb(255,66,14)" stroke="none" d="M 11167,6521 L 11353,6521 11353,4351 11167,4351 11167,6521 Z"/>
 <path fill="rgb(255,66,14)" stroke="none" d="M 10608,6521 L 10794,6521 10794,4587 10608,4587 10608,6521 Z"/>
 <path fill="rgb(255,66,14)" stroke="none" d="M 10049,6521 L 10236,6521 10236,4884 10049,4884 10049,6521 Z"/>
 <path fill="rgb(255,66,14)" stroke="none" d="M 9491,6521 L 9677,6521 9677,5096 9491,5096 9491,6521 Z"/>
 <path fill="rgb(255,66,14)" stroke="none" d="M 8932,6521 L 9119,6521 9119,5308 8932,5308 8932,6521 Z"/>
 <path fill="rgb(255,66,14)" stroke="none" d="M 8374,6521 L 8560,6521 8560,5478 8374,5478 8374,6521 Z"/>
 <path fill="rgb(255,66,14)" stroke="none" d="M 7816,6521 L 8001,6521 8001,5647 7816,5647 7816,6521 Z"/>
 <path fill="rgb(255,66,14)" stroke="none" d="M 7258,6521 L 7444,6521 7444,5818 7258,5818 7258,6521 Z"/>
 <path fill="rgb(255,66,14)" stroke="none" d="M 6699,6521 L 6885,6521 6885,5957 6699,5957 6699,6521 Z"/>
 <path fill="rgb(255,66,14)" stroke="none" d="M 6141,6521 L 6327,6521 6327,6084 6141,6084 6141,6521 Z"/>
 <path fill="rgb(255,66,14)" stroke="none" d="M 5582,6521 L 5768,6521 5768,6181 5582,6181 5582,6521 Z"/>
 <path fill="rgb(255,66,14)" stroke="none" d="M 5024,6521 L 5210,6521 5210,6296 5024,6296 5024,6521 Z"/>
 <path fill="rgb(255,66,14)" stroke="none" d="M 4465,6521 L 4651,6521 4651,6363 4465,6363 4465,6521 Z"/>
 <path fill="rgb(255,66,14)" stroke="none" d="M 3906,6521 L 4093,6521 4093,6418 3906,6418 3906,6521 Z"/>
 <path fill="rgb(255,66,14)" stroke="none" d="M 3348,6521 L 3534,6521 3534,6459 3348,6459 3348,6521 Z"/>
 <text class="TextShape"><tspan class="TextParagraph" font-family="Arial" font-size="353px" font-weight="400"><tspan class="TextPosition" x="1517" y="6642"><tspan fill="rgb(0,0,0)" stroke="none">0</tspan></tspan></tspan></text>
 <text class="TextShape"><tspan class="TextParagraph" font-family="Arial" font-size="353px" font-weight="400"><tspan class="TextPosition" x="1517" y="5864"><tspan fill="rgb(0,0,0)" stroke="none">2</tspan></tspan></tspan></text>
 <text class="TextShape"><tspan class="TextParagraph" font-family="Arial" font-size="353px" font-weight="400"><tspan class="TextPosition" x="1517" y="5087"><tspan fill="rgb(0,0,0)" stroke="none">4</tspan></tspan></tspan></text>
 <text class="TextShape"><tspan class="TextParagraph" font-family="Arial" font-size="353px" font-weight="400"><tspan class="TextPosition" x="1517" y="4310"><tspan fill="rgb(0,0,0)" stroke="none">6</tspan></tspan></tspan></text>
 <text class="TextShape"><tspan class="TextParagraph" font-family="Arial" font-size="353px" font-weight="400"><tspan class="TextPosition" x="1517" y="3533"><tspan fill="rgb(0,0,0)" stroke="none">8</tspan></tspan></tspan></text>
 <text class="TextShape"><tspan class="TextParagraph" font-family="Arial" font-size="353px" font-weight="400"><tspan class="TextPosition" x="1332" y="2756"><tspan fill="rgb(0,0,0)" stroke="none">10</tspan></tspan></tspan></text>
 <text class="TextShape"><tspan class="TextParagraph" font-family="Arial" font-size="353px" font-weight="400"><tspan class="TextPosition" x="1332" y="1979"><tspan fill="rgb(0,0,0)" stroke="none">12</tspan></tspan></tspan></text>
 <text class="TextShape"><tspan class="TextParagraph" font-family="Arial" font-size="459px" font-weight="400"><tspan class="TextPosition" x="6571" y="877"><tspan fill="rgb(0,0,0)" stroke="none">Dense Graphs</tspan></tspan></tspan></text>
 <path fill="rgb(255,66,14)" stroke="none" d="M 2789,6521 L 2976,6521 2976,6484 2789,6484 2789,6521 Z"/>
 <path fill="rgb(0,69,134)" stroke="none" d="M 13984,4356 L 13878,4356 13878,4145 14089,4145 14089,4356 13984,4356 Z"/>
 <text class="TextShape"><tspan class="TextParagraph" font-family="Arial" font-size="353px" font-weight="400"><tspan class="TextPosition" x="14189" y="4370"><tspan fill="rgb(0,0,0)" stroke="none">Binary</tspan></tspan></tspan></text>
 <text class="TextShape"><tspan class="TextParagraph" font-family="Arial" font-size="353px" font-weight="400"><tspan class="TextPosition" x="14189" y="4867"><tspan fill="rgb(0,0,0)" stroke="none">Fibonacci</tspan></tspan></tspan></text>
 <text class="TextShape"><tspan class="TextParagraph" font-family="Arial" font-size="318px" font-weight="400"><tspan class="TextPosition" x="6750" y="8405"><tspan fill="rgb(0,0,0)" stroke="none">Nodes</tspan></tspan></tspan></text>
 <text class="TextShape"><tspan class="TextParagraph" font-family="Arial" font-size="318px" font-weight="400"><tspan class="TextPosition" x="837" y="5384" transform="translate(837,5384) rotate(-90) translate(-837,-5384)"><tspan fill="rgb(0,0,0)" stroke="none">Seconds</tspan></tspan></tspan></text>
 <path fill="rgb(255,66,14)" stroke="none" d="M 13984,4853 L 13878,4853 13878,4642 14089,4642 14089,4853 13984,4853 Z"/>
</svg>