<?xml version="1.0" encoding="UTF-8"?>
<!DOCTYPE svg PUBLIC "-//W3C//DTD SVG 1.1//EN" "http://www.w3.org/Graphics/SVG/1.1/DTD/svg11.dtd">
<svg width="160mm" height="90mm" viewBox="0 0 16000 9000">
 <path fill="rgb(255,255,255)" stroke="none" d="M 8000,8999 L 0,8999 0,0 15999,0 15999,8999 8000,8999 Z"/>
 <path fill="none" stroke="rgb(179,179,179)" stroke-linejoin="round" d="M 9211,7191 L 3064,7191 3064,2644 15359,2644 15359,7191 9211,7191 Z"/>
 <path fill="none" stroke="rgb(179,179,179)" stroke-linejoin="round" d="M 15359,7190 L 3064,7190"/>
 <path fill="none" stroke="rgb(179,179,179)" stroke-linejoin="round" d="M 15359,6621 L 3064,6621"/>
 <path fill="none" stroke="rgb(179,179,179)" stroke-linejoin="round" d="M 15359,6053 L 3064,6053"/>
 <path fill="none" stroke="rgb(179,179,179)" stroke-linejoin="round" d="M 15359,5484 L 3064,5484"/>
 <path fill="none" stroke="rgb(179,179,179)" stroke-linejoin="round" d="M 15359,4916 L 3064,4916"/>
 <path fill="none" stroke="rgb(179,179,179)" stroke-linejoin="round" d="M 15359,4348 L 3064,4348"/>
 <path fill="none" stroke="rgb(179,179,179)" stroke-linejoin="round" d="M 15359,3780 L 3064,3780"/>
 <path fill="none" stroke="rgb(179,179,179)" stroke-linejoin="round" d="M 15359,3211 L 3064,3211"/>
 <path fill="none" stroke="rgb(179,179,179)" stroke-linejoin="round" d="M 15359,2643 L 3064,2643"/>
 <path fill="none" stroke="rgb(179,179,179)" stroke-linejoin="round" d="M 3064,7340 L 3064,7190"/>
 <path fill="none" stroke="rgb(179,179,179)" stroke-linejoin="round" d="M 3064,7340 L 3064,7190"/>
 <path fill="none" stroke="rgb(179,179,179)" stroke-linejoin="round" d="M 4820,7340 L 4820,7190"/>
 <path fill="none" stroke="rgb(179,179,179)" stroke-linejoin="round" d="M 4820,7340 L 4820,7190"/>
 <path fill="none" stroke="rgb(179,179,179)" stroke-linejoin="round" d="M 6577,7340 L 6577,7190"/>
 <path fill="none" stroke="rgb(179,179,179)" stroke-linejoin="round" d="M 6577,7340 L 6577,7190"/>
 <path fill="none" stroke="rgb(179,179,179)" stroke-linejoin="round" d="M 8332,7340 L 8332,7190"/>
 <path fill="none" stroke="rgb(179,179,179)" stroke-linejoin="round" d="M 8332,7340 L 8332,7190"/>
 <path fill="none" stroke="rgb(179,179,179)" stroke-linejoin="round" d="M 10089,7340 L 10089,7190"/>
 <path fill="none" stroke="rgb(179,179,179)" stroke-linejoin="round" d="M 10089,7340 L 10089,7190"/>
 <path fill="none" stroke="rgb(179,179,179)" stroke-linejoin="round" d="M 11845,7340 L 11845,7190"/>
 <path fill="none" stroke="rgb(179,179,179)" stroke-linejoin="round" d="M 11845,7340 L 11845,7190"/>
 <path fill="none" stroke="rgb(179,179,179)" stroke-linejoin="round" d="M 13602,7340 L 13602,7190"/>
 <path fill="none" stroke="rgb(179,179,179)" stroke-linejoin="round" d="M 13602,7340 L 13602,7190"/>
 <path fill="none" stroke="rgb(179,179,179)" stroke-linejoin="round" d="M 15359,7340 L 15359,7190"/>
 <path fill="none" stroke="rgb(179,179,179)" stroke-linejoin="round" d="M 15359,7340 L 15359,7190"/>
 <path fill="none" stroke="rgb(179,179,179)" stroke-linejoin="round" d="M 3064,7190 L 15359,7190"/>
 <path fill="none" stroke="rgb(179,179,179)" stroke-linejoin="round" d="M 2914,7190 L 3064,7190"/>
 <path fill="none" stroke="rgb(179,179,179)" stroke-linejoin="round" d="M 2914,7190 L 3064,7190"/>
 <path fill="none" stroke="rgb(179,179,179)" stroke-linejoin="round" d="M 2914,6621 L 3064,6621"/>
 <path fill="none" stroke="rgb(179,179,179)" stroke-linejoin="round" d="M 2914,6621 L 3064,6621"/>
 <path fill="none" stroke="rgb(179,179,179)" stroke-linejoin="round" d="M 2914,6053 L 3064,6053"/>
 <path fill="none" stroke="rgb(179,179,179)" stroke-linejoin="round" d="M 2914,6053 L 3064,6053"/>
 <path fill="none" stroke="rgb(179,179,179)" stroke-linejoin="round" d="M 2914,5484 L 3064,5484"/>
 <path fill="none" stroke="rgb(179,179,179)" stroke-linejoin="round" d="M 2914,5484 L 3064,5484"/>
 <path fill="none" stroke="rgb(179,179,179)" stroke-linejoin="round" d="M 2914,4916 L 3064,4916"/>
 <path fill="none" stroke="rgb(179,179,179)" stroke-linejoin="round" d="M 2914,4916 L 3064,4916"/>
 <path fill="none" stroke="rgb(179,179,179)" stroke-linejoin="round" d="M 2914,4348 L 3064,4348"/>
 <path fill="none" stroke="rgb(179,179,179)" stroke-linejoin="round" d="M 2914,4348 L 3064,4348"/>
 <path fill="none" stroke="rgb(179,179,179)" stroke-linejoin="round" d="M 2914,3780 L 3064,3780"/>
 <path fill="none" stroke="rgb(179,179,179)" stroke-linejoin="round" d="M 2914,3780 L 3064,3780"/>
 <path fill="none" stroke="rgb(179,179,179)" stroke-linejoin="round" d="M 2914,3211 L 3064,3211"/>
 <path fill="none" stroke="rgb(179,179,179)" stroke-linejoin="round" d="M 2914,3211 L 3064,3211"/>
 <path fill="none" stroke="rgb(179,179,179)" stroke-linejoin="round" d="M 2914,2643 L 3064,2643"/>
 <path fill="none" stroke="rgb(179,179,179)" stroke-linejoin="round" d="M 2914,2643 L 3064,2643"/>
 <path fill="none" stroke="rgb(179,179,179)" stroke-linejoin="round" d="M 3064,7190 L 3064,2643"/>
 <path fill="rgb(0,69,134)" stroke="none" d="M 13822,7190 L 14261,7190 14261,6991 13822,6991 13822,7190 Z"/>
 <path fill="rgb(0,69,134)" stroke="none" d="M 12065,7190 L 12504,7190 12504,7019 12065,7019 12065,7190 Z"/>
 <path fill="rgb(0,69,134)" stroke="none" d="M 10308,7190 L 10748,7190 10748,7047 10308,7047 10308,7190 Z"/>
 <path fill="rgb(0,69,134)" stroke="none" d="M 8552,7190 L 8991,7190 8991,7076 8552,7076 8552,7190 Z"/>
 <path fill="rgb(0,69,134)" stroke="none" d="M 6796,7190 L 7235,7190 7235,7104 6796,7104 6796,7190 Z"/>
 <path fill="rgb(0,69,134)" stroke="none" d="M 5040,7190 L 5479,7190 5479,7133 5040,7133 5040,7190 Z"/>
 <path fill="rgb(0,69,134)" stroke="none" d="M 3283,7190 L 3722,7190 3722,7161 3283,7161 3283,7190 Z"/>
 <path fill="rgb(255,66,14)" stroke="none" d="M 14261,7190 L 14700,7190 14700,3070 14261,3070 14261,7190 Z"/>
 <path fill="rgb(255,66,14)" stroke="none" d="M 12504,7190 L 12943,7190 12943,3542 12504,3542 12504,7190 Z"/>
 <path fill="rgb(255,66,14)" stroke="none" d="M 10748,7190 L 11187,7190 11187,4446 10748,4446 10748,7190 Z"/>
 <path fill="rgb(255,66,14)" stroke="none" d="M 8991,7190 L 9430,7190 9430,4733 8991,4733 8991,7190 Z"/>
 <path fill="rgb(255,66,14)" stroke="none" d="M 7235,7190 L 7675,7190 7675,5493 7235,5493 7235,7190 Z"/>
 <path fill="rgb(255,66,14)" stroke="none" d="M 5479,7190 L 5918,7190 5918,6047 5479,6047 5479,7190 Z"/>
 <path fill="rgb(255,66,14)" stroke="none" d="M 3722,7190 L 4161,7190 4161,6661 3722,6661 3722,7190 Z"/>
 <path fill="rgb(255,211,32)" stroke="none" d="M 14700,7190 L 15139,7190 15139,6195 14700,6195 14700,7190 Z"/>
 <path fill="rgb(255,211,32)" stroke="none" d="M 12943,7190 L 13382,7190 13382,6337 12943,6337 12943,7190 Z"/>
 <path fill="rgb(255,211,32)" stroke="none" d="M 11187,7190 L 11626,7190 11626,6479 11187,6479 11187,7190 Z"/>
 <path fill="rgb(255,211,32)" stroke="none" d="M 9430,7190 L 9869,7190 9869,6621 9430,6621 9430,7190 Z"/>
 <path fill="rgb(255,211,32)" stroke="none" d="M 7675,7190 L 8113,7190 8113,6763 7675,6763 7675,7190 Z"/>
 <path fill="rgb(255,211,32)" stroke="none" d="M 5918,7190 L 6357,7190 6357,6905 5918,6905 5918,7190 Z"/>
 <text class="TextShape"><tspan class="TextParagraph" font-family="Arial" font-size="353px" font-weight="400"><tspan class="TextPosition" x="3201" y="7758"><tspan fill="rgb(0,0,0)" stroke="none">5.00E+06</tspan></tspan></tspan></text>
 <text class="TextShape"><tspan class="TextParagraph" font-family="Arial" font-size="353px" font-weight="400"><tspan class="TextPosition" x="4957" y="7758"><tspan fill="rgb(0,0,0)" stroke="none">1.00E+07</tspan></tspan></tspan></text>
 <text class="TextShape"><tspan class="TextParagraph" font-family="Arial" font-size="353px" font-weight="400"><tspan class="TextPosition" x="6714" y="7758"><tspan fill="rgb(0,0,0)" stroke="none">1.50E+07</tspan></tspan></tspan></text>
 <text class="TextShape"><tspan class="TextParagraph" font-family="Arial" font-size="353px" font-weight="400"><tspan class="TextPosition" x="8471" y="7758"><tspan fill="rgb(0,0,0)" stroke="none">2.00E+07</tspan></tspan></tspan></text>
 <text class="TextShape"><tspan class="TextParagraph" font-family="Arial" font-size="353px" font-weight="400"><tspan class="TextPosition" x="10227" y="7758"><tspan fill="rgb(0,0,0)" stroke="none">2.50E+07</tspan></tspan></tspan></text>
 <text class="TextShape"><tspan class="TextParagraph" font-family="Arial" font-size="353px" font-weight="400"><tspan class="TextPosition" x="11984" y="7758"><tspan fill="rgb(0,0,0)" stroke="none">3.00E+07</tspan></tspan></tspan></text>
 <text class="TextShape"><tspan class="TextParagraph" font-family="Arial" font-size="353px" font-weight="400"><tspan class="TextPosition" x="13740" y="7758"><tspan fill="rgb(0,0,0)" stroke="none">3.50E+07</tspan></tspan></tspan></text>
 <text class="TextShape"><tspan class="TextParagraph" font-family="Arial" font-size="353px" font-weight="400"><tspan class="TextPosition" x="1332" y="7311"><tspan fill="rgb(0,0,0)" stroke="none">0.00E+00</tspan></tspan></tspan></text>
 <text class="TextShape"><tspan class="TextParagraph" font-family="Arial" font-size="353px" font-weight="400"><tspan class="TextPosition" x="1332" y="6742"><tspan fill="rgb(0,0,0)" stroke="none">1.00E+08</tspan></tspan></tspan></text>
 <text class="TextShape"><tspan class="TextParagraph" font-family="Arial" font-size="353px" font-weight="400"><tspan class="TextPosition" x="1332" y="6174"><tspan fill="rgb(0,0,0)" stroke="none">2.00E+08</tspan></tspan></tspan></text>
 <text class="TextShape"><tspan class="TextParagraph" font-family="Arial" font-size="353px" font-weight="400"><tspan class="TextPosition" x="1332" y="5605"><tspan fill="rgb(0,0,0)" stroke="none">3.00E+08</tspan></tspan></tspan></text>
 <text class="TextShape"><tspan class="TextParagraph" font-family="Arial" font-size="353px" font-weight="400"><tspan class="TextPosition" x="1332" y="5037"><tspan fill="rgb(0,0,0)" stroke="none">4.00E+08</tspan></tspan></tspan></text>
 <text class="TextShape"><tspan class="TextParagraph" font-family="Arial" font-size="353px" font-weight="400"><tspan class="TextPosition" x="1332" y="4468"><tspan fill="rgb(0,0,0)" stroke="none">5.00E+08</tspan></tspan></tspan></text>
 <text class="TextShape"><tspan class="TextParagraph" font-family="Arial" font-size="353px" font-weight="400"><tspan class="TextPosition" x="1332" y="3900"><tspan fill="rgb(0,0,0)" stroke="none">6.00E+08</tspan></tspan></tspan></text>
 <text class="TextShape"><tspan class="TextParagraph" font-family="Arial" font-size="353px" font-weight="400"><tspan class="TextPosition" x="1332" y="3331"><tspan fill="rgb(0,0,0)" stroke="none">7.00E+08</tspan></tspan></tspan></text>
 <text class="TextShape"><tspan class="TextParagraph" font-family="Arial" font-size="353px" font-weight="400"><tspan class="TextPosition" x="1332" y="2763"><tspan fill="rgb(0,0,0)" stroke="none">8.00E+08</tspan></tspan></tspan></text>
 <text class="TextShape"><tspan class="TextParagraph" font-family="Arial" font-size="459px" font-weight="400"><tspan class="TextPosition" x="5671" y="877"><tspan fill="rgb(0,0,0)" stroke="none">Fibonacci Comparisons</tspan></tspan></tspan></text>
 <path fill="rgb(255,211,32)" stroke="none" d="M 4161,7190 L 4601,7190 4601,7047 4161,7047 4161,7190 Z"/>
 <path fill="rgb(0,69,134)" stroke="none" d="M 2786,1889 L 2681,1889 2681,1678 2892,1678 2892,1889 2786,1889 Z"/>
 <path fill="rgb(255,66,14)" stroke="none" d="M 5792,1889 L 5687,1889 5687,1678 5898,1678 5898,1889 5792,1889 Z"/>
 <text class="TextShape"><tspan class="TextParagraph" font-family="Arial" font-size="353px" font-weight="400"><tspan class="TextPosition" x="2992" y="1903"><tspan fill="rgb(0,0,0)" stroke="none">Fibonacci Insert</tspan></tspan></tspan></text>
 <text class="TextShape"><tspan class="TextParagraph" font-family="Arial" font-size="353px" font-weight="400"><tspan class="TextPosition" x="5998" y="1903"><tspan fill="rgb(0,0,0)" stroke="none">Fibonacci Deletemin</tspan></tspan></tspan></text>
 <text class="TextShape"><tspan class="TextParagraph" font-family="Arial" font-size="353px" font-weight="400"><tspan class="TextPosition" x="9664" y="1903"><tspan fill="rgb(0,0,0)" stroke="none">Fibonacci DecreaseKey</tspan></tspan></tspan></text>
 <text class="TextShape"><tspan class="TextParagraph" font-family="Arial" font-size="318px" font-weight="400"><tspan class="TextPosition" x="7670" y="8405"><tspan fill="rgb(0,0,0)" stroke="none">Elements</tspan></tspan></tspan></text>
 <text class="TextShape"><tspan class="TextParagraph" font-family="Arial" font-size="318px" font-weight="400"><tspan class="TextPosition" x="837" y="6106" transform="translate(837,6106) rotate(-90) translate(-837,-6106)"><tspan fill="rgb(0,0,0)" stroke="none">Comparisons</tspan></tspan></tspan></text>
 <path fill="rgb(255,211,32)" stroke="none" d="M 9459,1889 L 9353,1889 9353,1678 9564,1678 9564,1889 9459,1889 Z"/>
</svg>