<?xml version="1.0" encoding="UTF-8"?>
<!DOCTYPE svg PUBLIC "-//W3C//DTD SVG 1.1//EN" "http://www.w3.org/Graphics/SVG/1.1/DTD/svg11.dtd">
<svg width="153mm" height="79mm" viewBox="0 0 15300 7900">
 <path fill="rgb(255,255,255)" stroke="none" d="M 7632,7895 L 0,7895 0,0 15263,0 15263,7895 7632,7895 Z"/>
 <path fill="none" stroke="rgb(179,179,179)" stroke-linejoin="round" d="M 7696,6671 L 1482,6671 1482,1745 13910,1745 13910,6671 7696,6671 Z"/>
 <path fill="none" stroke="rgb(179,179,179)" stroke-linejoin="round" d="M 13910,6670 L 1482,6670"/>
 <path fill="none" stroke="rgb(179,179,179)" stroke-linejoin="round" d="M 13910,6177 L 1482,6177"/>
 <path fill="none" stroke="rgb(179,179,179)" stroke-linejoin="round" d="M 13910,5684 L 1482,5684"/>
 <path fill="none" stroke="rgb(179,179,179)" stroke-linejoin="round" d="M 13910,5191 L 1482,5191"/>
 <path fill="none" stroke="rgb(179,179,179)" stroke-linejoin="round" d="M 13910,4699 L 1482,4699"/>
 <path fill="none" stroke="rgb(179,179,179)" stroke-linejoin="round" d="M 13910,4206 L 1482,4206"/>
 <path fill="none" stroke="rgb(179,179,179)" stroke-linejoin="round" d="M 13910,3714 L 1482,3714"/>
 <path fill="none" stroke="rgb(179,179,179)" stroke-linejoin="round" d="M 13910,3222 L 1482,3222"/>
 <path fill="none" stroke="rgb(179,179,179)" stroke-linejoin="round" d="M 13910,2729 L 1482,2729"/>
 <path fill="none" stroke="rgb(179,179,179)" stroke-linejoin="round" d="M 13910,2236 L 1482,2236"/>
 <path fill="none" stroke="rgb(179,179,179)" stroke-linejoin="round" d="M 13910,1744 L 1482,1744"/>
 <path fill="none" stroke="rgb(179,179,179)" stroke-linejoin="round" d="M 1482,6820 L 1482,6670"/>
 <path fill="none" stroke="rgb(179,179,179)" stroke-linejoin="round" d="M 1482,6820 L 1482,6670"/>
 <path fill="none" stroke="rgb(179,179,179)" stroke-linejoin="round" d="M 3553,6820 L 3553,6670"/>
 <path fill="none" stroke="rgb(179,179,179)" stroke-linejoin="round" d="M 3553,6820 L 3553,6670"/>
 <path fill="none" stroke="rgb(179,179,179)" stroke-linejoin="round" d="M 5625,6820 L 5625,6670"/>
 <path fill="none" stroke="rgb(179,179,179)" stroke-linejoin="round" d="M 5625,6820 L 5625,6670"/>
 <path fill="none" stroke="rgb(179,179,179)" stroke-linejoin="round" d="M 7695,6820 L 7695,6670"/>
 <path fill="none" stroke="rgb(179,179,179)" stroke-linejoin="round" d="M 7695,6820 L 7695,6670"/>
 <path fill="none" stroke="rgb(179,179,179)" stroke-linejoin="round" d="M 9767,6820 L 9767,6670"/>
 <path fill="none" stroke="rgb(179,179,179)" stroke-linejoin="round" d="M 9767,6820 L 9767,6670"/>
 <path fill="none" stroke="rgb(179,179,179)" stroke-linejoin="round" d="M 11838,6820 L 11838,6670"/>
 <path fill="none" stroke="rgb(179,179,179)" stroke-linejoin="round" d="M 11838,6820 L 11838,6670"/>
 <path fill="none" stroke="rgb(179,179,179)" stroke-linejoin="round" d="M 13910,6820 L 13910,6670"/>
 <path fill="none" stroke="rgb(179,179,179)" stroke-linejoin="round" d="M 13910,6820 L 13910,6670"/>
 <path fill="none" stroke="rgb(179,179,179)" stroke-linejoin="round" d="M 1482,6670 L 13910,6670"/>
 <path fill="none" stroke="rgb(179,179,179)" stroke-linejoin="round" d="M 1332,6670 L 1482,6670"/>
 <path fill="none" stroke="rgb(179,179,179)" stroke-linejoin="round" d="M 1332,6670 L 1482,6670"/>
 <path fill="none" stroke="rgb(179,179,179)" stroke-linejoin="round" d="M 1332,6177 L 1482,6177"/>
 <path fill="none" stroke="rgb(179,179,179)" stroke-linejoin="round" d="M 1332,6177 L 1482,6177"/>
 <path fill="none" stroke="rgb(179,179,179)" stroke-linejoin="round" d="M 1332,5684 L 1482,5684"/>
 <path fill="none" stroke="rgb(179,179,179)" stroke-linejoin="round" d="M 1332,5684 L 1482,5684"/>
 <path fill="none" stroke="rgb(179,179,179)" stroke-linejoin="round" d="M 1332,5191 L 1482,5191"/>
 <path fill="none" stroke="rgb(179,179,179)" stroke-linejoin="round" d="M 1332,5191 L 1482,5191"/>
 <path fill="none" stroke="rgb(179,179,179)" stroke-linejoin="round" d="M 1332,4699 L 1482,4699"/>
 <path fill="none" stroke="rgb(179,179,179)" stroke-linejoin="round" d="M 1332,4699 L 1482,4699"/>
 <path fill="none" stroke="rgb(179,179,179)" stroke-linejoin="round" d="M 1332,4206 L 1482,4206"/>
 <path fill="none" stroke="rgb(179,179,179)" stroke-linejoin="round" d="M 1332,4206 L 1482,4206"/>
 <path fill="none" stroke="rgb(179,179,179)" stroke-linejoin="round" d="M 1332,3714 L 1482,3714"/>
 <path fill="none" stroke="rgb(179,179,179)" stroke-linejoin="round" d="M 1332,3714 L 1482,3714"/>
 <path fill="none" stroke="rgb(179,179,179)" stroke-linejoin="round" d="M 1332,3222 L 1482,3222"/>
 <path fill="none" stroke="rgb(179,179,179)" stroke-linejoin="round" d="M 1332,3222 L 1482,3222"/>
 <path fill="none" stroke="rgb(179,179,179)" stroke-linejoin="round" d="M 1332,2729 L 1482,2729"/>
 <path fill="none" stroke="rgb(179,179,179)" stroke-linejoin="round" d="M 1332,2729 L 1482,2729"/>
 <path fill="none" stroke="rgb(179,179,179)" stroke-linejoin="round" d="M 1332,2236 L 1482,2236"/>
 <path fill="none" stroke="rgb(179,179,179)" stroke-linejoin="round" d="M 1332,2236 L 1482,2236"/>
 <path fill="none" stroke="rgb(179,179,179)" stroke-linejoin="round" d="M 1332,1744 L 1482,1744"/>
 <path fill="none" stroke="rgb(179,179,179)" stroke-linejoin="round" d="M 1332,1744 L 1482,1744"/>
 <path fill="none" stroke="rgb(179,179,179)" stroke-linejoin="round" d="M 1482,6670 L 1482,1744"/>
 <path fill="none" stroke="rgb(0,69,134)" stroke-width="80" stroke-linejoin="round" d="M 1482,6049 L 3553,5418 5625,4728 7695,4137 9767,3498 11838,2660 13910,2069"/>
 <path fill="rgb(0,69,134)" stroke="rgb(0,69,134)" stroke-linejoin="round" d="M 1357,5924 L 1357,6174 1607,6174 1607,5924 1357,5924 Z"/>
 <path fill="rgb(0,69,134)" stroke="rgb(0,69,134)" stroke-linejoin="round" d="M 3428,5293 L 3428,5543 3678,5543 3678,5293 3428,5293 Z"/>
 <path fill="rgb(0,69,134)" stroke="rgb(0,69,134)" stroke-linejoin="round" d="M 5500,4603 L 5500,4853 5750,4853 5750,4603 5500,4603 Z"/>
 <path fill="rgb(0,69,134)" stroke="rgb(0,69,134)" stroke-linejoin="round" d="M 7571,4012 L 7571,4262 7820,4262 7820,4012 7571,4012 Z"/>
 <path fill="rgb(0,69,134)" stroke="rgb(0,69,134)" stroke-linejoin="round" d="M 9642,3373 L 9642,3623 9892,3623 9892,3373 9642,3373 Z"/>
 <path fill="rgb(0,69,134)" stroke="rgb(0,69,134)" stroke-linejoin="round" d="M 11713,2535 L 11713,2785 11963,2785 11963,2535 11713,2535 Z"/>
 <path fill="rgb(0,69,134)" stroke="rgb(0,69,134)" stroke-linejoin="round" d="M 13785,1944 L 13785,2194 14035,2194 14035,1944 13785,1944 Z"/>
 <path fill="none" stroke="rgb(255,66,14)" stroke-width="80" stroke-linejoin="round" d="M 1482,6443 L 3553,6206 5625,5970 7695,5753 9767,5536 11838,5320 13910,5073"/>
 <path fill="rgb(255,66,14)" stroke="rgb(255,66,14)" stroke-linejoin="round" d="M 1357,6443 L 1482,6568 1607,6443 1482,6318 1357,6443 Z"/>
 <path fill="rgb(255,66,14)" stroke="rgb(255,66,14)" stroke-linejoin="round" d="M 3428,6206 L 3553,6331 3678,6206 3553,6081 3428,6206 Z"/>
 <path fill="rgb(255,66,14)" stroke="rgb(255,66,14)" stroke-linejoin="round" d="M 5500,5970 L 5625,6095 5750,5970 5625,5845 5500,5970 Z"/>
 <path fill="rgb(255,66,14)" stroke="rgb(255,66,14)" stroke-linejoin="round" d="M 7571,5753 L 7695,5878 7820,5753 7695,5628 7571,5753 Z"/>
 <path fill="rgb(255,66,14)" stroke="rgb(255,66,14)" stroke-linejoin="round" d="M 9642,5536 L 9767,5661 9892,5536 9767,5411 9642,5536 Z"/>
 <path fill="rgb(255,66,14)" stroke="rgb(255,66,14)" stroke-linejoin="round" d="M 11713,5320 L 11838,5445 11963,5320 11838,5195 11713,5320 Z"/>
 <path fill="rgb(255,66,14)" stroke="rgb(255,66,14)" stroke-linejoin="round" d="M 13785,5073 L 13910,5198 14035,5073 13910,4948 13785,5073 Z"/>
 <text class="TextShape"><tspan class="TextParagraph" font-family="Arial, sans-serif" font-size="353px" font-weight="400"><tspan class="TextPosition" x="834" y="7238"><tspan fill="rgb(0,0,0)" stroke="none">5000000</tspan></tspan></tspan></text>
 <text class="TextShape"><tspan class="TextParagraph" font-family="Arial, sans-serif" font-size="353px" font-weight="400"><tspan class="TextPosition" x="2812" y="7238"><tspan fill="rgb(0,0,0)" stroke="none">10000000</tspan></tspan></tspan></text>
 <text class="TextShape"><tspan class="TextParagraph" font-family="Arial, sans-serif" font-size="353px" font-weight="400"><tspan class="TextPosition" x="4884" y="7238"><tspan fill="rgb(0,0,0)" stroke="none">15000000</tspan></tspan></tspan></text>
 <text class="TextShape"><tspan class="TextParagraph" font-family="Arial, sans-serif" font-size="353px" font-weight="400"><tspan class="TextPosition" x="6955" y="7238"><tspan fill="rgb(0,0,0)" stroke="none">20000000</tspan></tspan></tspan></text>
 <text class="TextShape"><tspan class="TextParagraph" font-family="Arial, sans-serif" font-size="353px" font-weight="400"><tspan class="TextPosition" x="9027" y="7238"><tspan fill="rgb(0,0,0)" stroke="none">25000000</tspan></tspan></tspan></text>
 <text class="TextShape"><tspan class="TextParagraph" font-family="Arial, sans-serif" font-size="353px" font-weight="400"><tspan class="TextPosition" x="11098" y="7238"><tspan fill="rgb(0,0,0)" stroke="none">30000000</tspan></tspan></tspan></text>
 <text class="TextShape"><tspan class="TextParagraph" font-family="Arial, sans-serif" font-size="353px" font-weight="400"><tspan class="TextPosition" x="13170" y="7238"><tspan fill="rgb(0,0,0)" stroke="none">35000000</tspan></tspan></tspan></text>
 <text class="TextShape"><tspan class="TextParagraph" font-family="Arial, sans-serif" font-size="353px" font-weight="400"><tspan class="TextPosition" x="1047" y="6791"><tspan fill="rgb(0,0,0)" stroke="none">0</tspan></tspan></tspan></text>
 <text class="TextShape"><tspan class="TextParagraph" font-family="Arial, sans-serif" font-size="353px" font-weight="400"><tspan class="TextPosition" x="756" y="6298"><tspan fill="rgb(0,0,0)" stroke="none">0.5</tspan></tspan></tspan></text>
 <text class="TextShape"><tspan class="TextParagraph" font-family="Arial, sans-serif" font-size="353px" font-weight="400"><tspan class="TextPosition" x="1047" y="5805"><tspan fill="rgb(0,0,0)" stroke="none">1</tspan></tspan></tspan></text>
 <text class="TextShape"><tspan class="TextParagraph" font-family="Arial, sans-serif" font-size="353px" font-weight="400"><tspan class="TextPosition" x="756" y="5312"><tspan fill="rgb(0,0,0)" stroke="none">1.5</tspan></tspan></tspan></text>
 <text class="TextShape"><tspan class="TextParagraph" font-family="Arial, sans-serif" font-size="353px" font-weight="400"><tspan class="TextPosition" x="1047" y="4820"><tspan fill="rgb(0,0,0)" stroke="none">2</tspan></tspan></tspan></text>
 <text class="TextShape"><tspan class="TextParagraph" font-family="Arial, sans-serif" font-size="353px" font-weight="400"><tspan class="TextPosition" x="756" y="4327"><tspan fill="rgb(0,0,0)" stroke="none">2.5</tspan></tspan></tspan></text>
 <text class="TextShape"><tspan class="TextParagraph" font-family="Arial, sans-serif" font-size="353px" font-weight="400"><tspan class="TextPosition" x="1047" y="3834"><tspan fill="rgb(0,0,0)" stroke="none">3</tspan></tspan></tspan></text>
 <text class="TextShape"><tspan class="TextParagraph" font-family="Arial, sans-serif" font-size="353px" font-weight="400"><tspan class="TextPosition" x="756" y="3342"><tspan fill="rgb(0,0,0)" stroke="none">3.5</tspan></tspan></tspan></text>
 <text class="TextShape"><tspan class="TextParagraph" font-family="Arial, sans-serif" font-size="353px" font-weight="400"><tspan class="TextPosition" x="1047" y="2849"><tspan fill="rgb(0,0,0)" stroke="none">4</tspan></tspan></tspan></text>
 <text class="TextShape"><tspan class="TextParagraph" font-family="Arial, sans-serif" font-size="353px" font-weight="400"><tspan class="TextPosition" x="756" y="2356"><tspan fill="rgb(0,0,0)" stroke="none">4.5</tspan></tspan></tspan></text>
 <text class="TextShape"><tspan class="TextParagraph" font-family="Arial, sans-serif" font-size="353px" font-weight="400"><tspan class="TextPosition" x="1047" y="1864"><tspan fill="rgb(0,0,0)" stroke="none">5</tspan></tspan></tspan></text>
 <path fill="none" stroke="rgb(0,69,134)" stroke-width="80" stroke-linejoin="round" d="M 4404,932 L 5204,932"/>
 <path fill="rgb(0,69,134)" stroke="rgb(0,69,134)" stroke-linejoin="round" d="M 4698,827 L 4698,1037 4909,1037 4909,827 4698,827 Z"/>
 <path fill="none" stroke="rgb(255,66,14)" stroke-width="80" stroke-linejoin="round" d="M 7496,932 L 8295,932"/>
 <path fill="rgb(255,66,14)" stroke="rgb(255,66,14)" stroke-linejoin="round" d="M 7789,932 L 7895,1037 8000,932 7895,827 7789,932 Z"/>
 <text class="TextShape"><tspan class="TextParagraph" font-family="Arial, sans-serif" font-size="353px" font-weight="400"><tspan class="TextPosition" x="5304" y="1052"><tspan fill="rgb(0,0,0)" stroke="none">Binary Insert</tspan></tspan></tspan></text>
 <text class="TextShape"><tspan class="TextParagraph" font-family="Arial, sans-serif" font-size="353px" font-weight="400"><tspan class="TextPosition" x="8395" y="1052"><tspan fill="rgb(0,0,0)" stroke="none">Fibonacci Insert</tspan></tspan></tspan></text>
</svg>