<?xml version="1.0" encoding="UTF-8"?>
<!DOCTYPE svg PUBLIC "-//W3C//DTD SVG 1.1//EN" "http://www.w3.org/Graphics/SVG/1.1/DTD/svg11.dtd">
<svg width="153mm" height="79mm" viewBox="0 0 15300 7900">
 <path fill="rgb(255,255,255)" stroke="none" d="M 7632,7895 L 0,7895 0,0 15263,0 15263,7895 7632,7895 Z"/>
 <path fill="none" stroke="rgb(179,179,179)" stroke-linejoin="round" d="M 7937,6110 L 1964,6110 1964,2551 13910,2551 13910,6110 7937,6110 Z"/>
 <path fill="none" stroke="rgb(179,179,179)" stroke-linejoin="round" d="M 13910,6109 L 1964,6109"/>
 <path fill="none" stroke="rgb(179,179,179)" stroke-linejoin="round" d="M 13910,5397 L 1964,5397"/>
 <path fill="none" stroke="rgb(179,179,179)" stroke-linejoin="round" d="M 13910,4685 L 1964,4685"/>
 <path fill="none" stroke="rgb(179,179,179)" stroke-linejoin="round" d="M 13910,3973 L 1964,3973"/>
 <path fill="none" stroke="rgb(179,179,179)" stroke-linejoin="round" d="M 13910,3262 L 1964,3262"/>
 <path fill="none" stroke="rgb(179,179,179)" stroke-linejoin="round" d="M 13910,2550 L 1964,2550"/>
 <path fill="none" stroke="rgb(179,179,179)" stroke-linejoin="round" d="M 1964,6259 L 1964,6109"/>
 <path fill="none" stroke="rgb(179,179,179)" stroke-linejoin="round" d="M 1964,6259 L 1964,6109"/>
 <path fill="none" stroke="rgb(179,179,179)" stroke-linejoin="round" d="M 3955,6259 L 3955,6109"/>
 <path fill="none" stroke="rgb(179,179,179)" stroke-linejoin="round" d="M 3955,6259 L 3955,6109"/>
 <path fill="none" stroke="rgb(179,179,179)" stroke-linejoin="round" d="M 5946,6259 L 5946,6109"/>
 <path fill="none" stroke="rgb(179,179,179)" stroke-linejoin="round" d="M 5946,6259 L 5946,6109"/>
 <path fill="none" stroke="rgb(179,179,179)" stroke-linejoin="round" d="M 7936,6259 L 7936,6109"/>
 <path fill="none" stroke="rgb(179,179,179)" stroke-linejoin="round" d="M 7936,6259 L 7936,6109"/>
 <path fill="none" stroke="rgb(179,179,179)" stroke-linejoin="round" d="M 9927,6259 L 9927,6109"/>
 <path fill="none" stroke="rgb(179,179,179)" stroke-linejoin="round" d="M 9927,6259 L 9927,6109"/>
 <path fill="none" stroke="rgb(179,179,179)" stroke-linejoin="round" d="M 11918,6259 L 11918,6109"/>
 <path fill="none" stroke="rgb(179,179,179)" stroke-linejoin="round" d="M 11918,6259 L 11918,6109"/>
 <path fill="none" stroke="rgb(179,179,179)" stroke-linejoin="round" d="M 13910,6259 L 13910,6109"/>
 <path fill="none" stroke="rgb(179,179,179)" stroke-linejoin="round" d="M 13910,6259 L 13910,6109"/>
 <path fill="none" stroke="rgb(179,179,179)" stroke-linejoin="round" d="M 1964,6109 L 13910,6109"/>
 <path fill="none" stroke="rgb(179,179,179)" stroke-linejoin="round" d="M 1814,6109 L 1964,6109"/>
 <path fill="none" stroke="rgb(179,179,179)" stroke-linejoin="round" d="M 1814,6109 L 1964,6109"/>
 <path fill="none" stroke="rgb(179,179,179)" stroke-linejoin="round" d="M 1814,5397 L 1964,5397"/>
 <path fill="none" stroke="rgb(179,179,179)" stroke-linejoin="round" d="M 1814,5397 L 1964,5397"/>
 <path fill="none" stroke="rgb(179,179,179)" stroke-linejoin="round" d="M 1814,4685 L 1964,4685"/>
 <path fill="none" stroke="rgb(179,179,179)" stroke-linejoin="round" d="M 1814,4685 L 1964,4685"/>
 <path fill="none" stroke="rgb(179,179,179)" stroke-linejoin="round" d="M 1814,3972 L 1964,3972"/>
 <path fill="none" stroke="rgb(179,179,179)" stroke-linejoin="round" d="M 1814,3972 L 1964,3972"/>
 <path fill="none" stroke="rgb(179,179,179)" stroke-linejoin="round" d="M 1814,3262 L 1964,3262"/>
 <path fill="none" stroke="rgb(179,179,179)" stroke-linejoin="round" d="M 1814,3262 L 1964,3262"/>
 <path fill="none" stroke="rgb(179,179,179)" stroke-linejoin="round" d="M 1814,2550 L 1964,2550"/>
 <path fill="none" stroke="rgb(179,179,179)" stroke-linejoin="round" d="M 1814,2550 L 1964,2550"/>
 <path fill="none" stroke="rgb(179,179,179)" stroke-linejoin="round" d="M 1964,6109 L 1964,2550"/>
 <path fill="none" stroke="rgb(0,69,134)" stroke-width="80" stroke-linejoin="round" d="M 1964,5660 L 3955,5204 5946,4706 7936,4279 9927,3817 11918,3212 13910,2784"/>
 <path fill="rgb(0,69,134)" stroke="rgb(0,69,134)" stroke-linejoin="round" d="M 1839,5535 L 1839,5785 2089,5785 2089,5535 1839,5535 Z"/>
 <path fill="rgb(0,69,134)" stroke="rgb(0,69,134)" stroke-linejoin="round" d="M 3830,5079 L 3830,5329 4080,5329 4080,5079 3830,5079 Z"/>
 <path fill="rgb(0,69,134)" stroke="rgb(0,69,134)" stroke-linejoin="round" d="M 5821,4581 L 5821,4831 6071,4831 6071,4581 5821,4581 Z"/>
 <path fill="rgb(0,69,134)" stroke="rgb(0,69,134)" stroke-linejoin="round" d="M 7811,4154 L 7811,4404 8061,4404 8061,4154 7811,4154 Z"/>
 <path fill="rgb(0,69,134)" stroke="rgb(0,69,134)" stroke-linejoin="round" d="M 9802,3692 L 9802,3942 10052,3942 10052,3692 9802,3692 Z"/>
 <path fill="rgb(0,69,134)" stroke="rgb(0,69,134)" stroke-linejoin="round" d="M 11793,3087 L 11793,3337 12043,3337 12043,3087 11793,3087 Z"/>
 <path fill="rgb(0,69,134)" stroke="rgb(0,69,134)" stroke-linejoin="round" d="M 13785,2659 L 13785,2909 14035,2909 14035,2659 13785,2659 Z"/>
 <path fill="none" stroke="rgb(255,66,14)" stroke-width="80" stroke-linejoin="round" d="M 1964,5945 L 3955,5774 5946,5603 7936,5446 9927,5290 11918,5133 13910,4955"/>
 <path fill="rgb(255,66,14)" stroke="rgb(255,66,14)" stroke-linejoin="round" d="M 1839,5945 L 1964,6070 2089,5945 1964,5820 1839,5945 Z"/>
 <path fill="rgb(255,66,14)" stroke="rgb(255,66,14)" stroke-linejoin="round" d="M 3830,5774 L 3955,5899 4080,5774 3955,5649 3830,5774 Z"/>
 <path fill="rgb(255,66,14)" stroke="rgb(255,66,14)" stroke-linejoin="round" d="M 5821,5603 L 5946,5728 6071,5603 5946,5478 5821,5603 Z"/>
 <path fill="rgb(255,66,14)" stroke="rgb(255,66,14)" stroke-linejoin="round" d="M 7811,5446 L 7936,5571 8061,5446 7936,5321 7811,5446 Z"/>
 <path fill="rgb(255,66,14)" stroke="rgb(255,66,14)" stroke-linejoin="round" d="M 9802,5290 L 9927,5415 10052,5290 9927,5165 9802,5290 Z"/>
 <path fill="rgb(255,66,14)" stroke="rgb(255,66,14)" stroke-linejoin="round" d="M 11793,5133 L 11918,5258 12043,5133 11918,5008 11793,5133 Z"/>
 <path fill="rgb(255,66,14)" stroke="rgb(255,66,14)" stroke-linejoin="round" d="M 13785,4955 L 13910,5080 14035,4955 13910,4830 13785,4955 Z"/>
 <text class="TextShape"><tspan class="TextParagraph" font-family="Arial, sans-serif" font-size="353px" font-weight="400"><tspan class="TextPosition" x="1316" y="6677"><tspan fill="rgb(0,0,0)" stroke="none">5000000</tspan></tspan></tspan></text>
 <text class="TextShape"><tspan class="TextParagraph" font-family="Arial, sans-serif" font-size="353px" font-weight="400"><tspan class="TextPosition" x="3214" y="6677"><tspan fill="rgb(0,0,0)" stroke="none">10000000</tspan></tspan></tspan></text>
 <text class="TextShape"><tspan class="TextParagraph" font-family="Arial, sans-serif" font-size="353px" font-weight="400"><tspan class="TextPosition" x="5205" y="6677"><tspan fill="rgb(0,0,0)" stroke="none">15000000</tspan></tspan></tspan></text>
 <text class="TextShape"><tspan class="TextParagraph" font-family="Arial, sans-serif" font-size="353px" font-weight="400"><tspan class="TextPosition" x="7196" y="6677"><tspan fill="rgb(0,0,0)" stroke="none">20000000</tspan></tspan></tspan></text>
 <text class="TextShape"><tspan class="TextParagraph" font-family="Arial, sans-serif" font-size="353px" font-weight="400"><tspan class="TextPosition" x="9187" y="6677"><tspan fill="rgb(0,0,0)" stroke="none">25000000</tspan></tspan></tspan></text>
 <text class="TextShape"><tspan class="TextParagraph" font-family="Arial, sans-serif" font-size="353px" font-weight="400"><tspan class="TextPosition" x="11178" y="6677"><tspan fill="rgb(0,0,0)" stroke="none">30000000</tspan></tspan></tspan></text>
 <text class="TextShape"><tspan class="TextParagraph" font-family="Arial, sans-serif" font-size="353px" font-weight="400"><tspan class="TextPosition" x="13170" y="6677"><tspan fill="rgb(0,0,0)" stroke="none">35000000</tspan></tspan></tspan></text>
 <text class="TextShape"><tspan class="TextParagraph" font-family="Arial, sans-serif" font-size="353px" font-weight="400"><tspan class="TextPosition" x="1529" y="6230"><tspan fill="rgb(0,0,0)" stroke="none">0</tspan></tspan></tspan></text>
 <text class="TextShape"><tspan class="TextParagraph" font-family="Arial, sans-serif" font-size="353px" font-weight="400"><tspan class="TextPosition" x="1529" y="5518"><tspan fill="rgb(0,0,0)" stroke="none">1</tspan></tspan></tspan></text>
 <text class="TextShape"><tspan class="TextParagraph" font-family="Arial, sans-serif" font-size="353px" font-weight="400"><tspan class="TextPosition" x="1529" y="4806"><tspan fill="rgb(0,0,0)" stroke="none">2</tspan></tspan></tspan></text>
 <text class="TextShape"><tspan class="TextParagraph" font-family="Arial, sans-serif" font-size="353px" font-weight="400"><tspan class="TextPosition" x="1529" y="4093"><tspan fill="rgb(0,0,0)" stroke="none">3</tspan></tspan></tspan></text>
 <text class="TextShape"><tspan class="TextParagraph" font-family="Arial, sans-serif" font-size="353px" font-weight="400"><tspan class="TextPosition" x="1529" y="3382"><tspan fill="rgb(0,0,0)" stroke="none">4</tspan></tspan></tspan></text>
 <text class="TextShape"><tspan class="TextParagraph" font-family="Arial, sans-serif" font-size="353px" font-weight="400"><tspan class="TextPosition" x="1529" y="2670"><tspan fill="rgb(0,0,0)" stroke="none">5</tspan></tspan></tspan></text>
 <text class="TextShape"><tspan class="TextParagraph" font-family="Arial, sans-serif" font-size="459px" font-weight="400"><tspan class="TextPosition" x="6944" y="854"><tspan fill="rgb(0,0,0)" stroke="none">Inserts</tspan></tspan></tspan></text>
 <path fill="none" stroke="rgb(0,69,134)" stroke-width="80" stroke-linejoin="round" d="M 4404,1738 L 5204,1738"/>
 <path fill="rgb(0,69,134)" stroke="rgb(0,69,134)" stroke-linejoin="round" d="M 4698,1633 L 4698,1843 4909,1843 4909,1633 4698,1633 Z"/>
 <path fill="none" stroke="rgb(255,66,14)" stroke-width="80" stroke-linejoin="round" d="M 7496,1738 L 8295,1738"/>
 <path fill="rgb(255,66,14)" stroke="rgb(255,66,14)" stroke-linejoin="round" d="M 7789,1738 L 7895,1843 8000,1738 7895,1633 7789,1738 Z"/>
 <text class="TextShape"><tspan class="TextParagraph" font-family="Arial, sans-serif" font-size="353px" font-weight="400"><tspan class="TextPosition" x="5304" y="1858"><tspan fill="rgb(0,0,0)" stroke="none">Binary Insert</tspan></tspan></tspan></text>
 <text class="TextShape"><tspan class="TextParagraph" font-family="Arial, sans-serif" font-size="353px" font-weight="400"><tspan class="TextPosition" x="8395" y="1858"><tspan fill="rgb(0,0,0)" stroke="none">Fibonacci Insert</tspan></tspan></tspan></text>
 <text class="TextShape"><tspan class="TextParagraph" font-family="Arial, sans-serif" font-size="318px" font-weight="400"><tspan class="TextPosition" x="7310" y="7301"><tspan fill="rgb(0,0,0)" stroke="none">Elements</tspan></tspan></tspan></text>
 <text class="TextShape"><tspan class="TextParagraph" font-family="Arial, sans-serif" font-size="318px" font-weight="400"><tspan class="TextPosition" x="837" y="5189" transform="translate(837,5189) rotate(-90) translate(-837,-5189)"><tspan fill="rgb(0,0,0)" stroke="none">Seconds</tspan></tspan></tspan></text>
</svg>