<?xml version="1.0" encoding="UTF-8"?>
<!DOCTYPE svg PUBLIC "-//W3C//DTD SVG 1.1//EN" "http://www.w3.org/Graphics/SVG/1.1/DTD/svg11.dtd">
<svg width="160mm" height="90mm" viewBox="0 0 16000 9000">
 <path fill="rgb(255,255,255)" stroke="none" d="M 8000,8986 L 0,8986 0,-13 15999,-13 15999,8986 8000,8986 Z"/>
 <path fill="none" stroke="rgb(179,179,179)" stroke-linejoin="round" d="M 6792,7125 L 1794,7125 1794,1834 11790,1834 11790,7125 6792,7125 Z"/>
 <path fill="none" stroke="rgb(179,179,179)" stroke-linejoin="round" d="M 11790,7124 L 1794,7124"/>
 <path fill="none" stroke="rgb(179,179,179)" stroke-linejoin="round" d="M 11790,6462 L 1794,6462"/>
 <path fill="none" stroke="rgb(179,179,179)" stroke-linejoin="round" d="M 11790,5801 L 1794,5801"/>
 <path fill="none" stroke="rgb(179,179,179)" stroke-linejoin="round" d="M 11790,5139 L 1794,5139"/>
 <path fill="none" stroke="rgb(179,179,179)" stroke-linejoin="round" d="M 11790,4479 L 1794,4479"/>
 <path fill="none" stroke="rgb(179,179,179)" stroke-linejoin="round" d="M 11790,3817 L 1794,3817"/>
 <path fill="none" stroke="rgb(179,179,179)" stroke-linejoin="round" d="M 11790,3156 L 1794,3156"/>
 <path fill="none" stroke="rgb(179,179,179)" stroke-linejoin="round" d="M 11790,2494 L 1794,2494"/>
 <path fill="none" stroke="rgb(179,179,179)" stroke-linejoin="round" d="M 11790,1833 L 1794,1833"/>
 <path fill="none" stroke="rgb(179,179,179)" stroke-linejoin="round" d="M 1794,7274 L 1794,7124"/>
 <path fill="none" stroke="rgb(179,179,179)" stroke-linejoin="round" d="M 1794,7274 L 1794,7124"/>
 <path fill="none" stroke="rgb(179,179,179)" stroke-linejoin="round" d="M 4293,7274 L 4293,7124"/>
 <path fill="none" stroke="rgb(179,179,179)" stroke-linejoin="round" d="M 4293,7274 L 4293,7124"/>
 <path fill="none" stroke="rgb(179,179,179)" stroke-linejoin="round" d="M 6792,7274 L 6792,7124"/>
 <path fill="none" stroke="rgb(179,179,179)" stroke-linejoin="round" d="M 6792,7274 L 6792,7124"/>
 <path fill="none" stroke="rgb(179,179,179)" stroke-linejoin="round" d="M 9290,7274 L 9290,7124"/>
 <path fill="none" stroke="rgb(179,179,179)" stroke-linejoin="round" d="M 9290,7274 L 9290,7124"/>
 <path fill="none" stroke="rgb(179,179,179)" stroke-linejoin="round" d="M 11790,7274 L 11790,7124"/>
 <path fill="none" stroke="rgb(179,179,179)" stroke-linejoin="round" d="M 11790,7274 L 11790,7124"/>
 <path fill="none" stroke="rgb(179,179,179)" stroke-linejoin="round" d="M 1794,7124 L 11790,7124"/>
 <path fill="none" stroke="rgb(179,179,179)" stroke-linejoin="round" d="M 1644,7124 L 1794,7124"/>
 <path fill="none" stroke="rgb(179,179,179)" stroke-linejoin="round" d="M 1644,7124 L 1794,7124"/>
 <path fill="none" stroke="rgb(179,179,179)" stroke-linejoin="round" d="M 1644,6462 L 1794,6462"/>
 <path fill="none" stroke="rgb(179,179,179)" stroke-linejoin="round" d="M 1644,6462 L 1794,6462"/>
 <path fill="none" stroke="rgb(179,179,179)" stroke-linejoin="round" d="M 1644,5801 L 1794,5801"/>
 <path fill="none" stroke="rgb(179,179,179)" stroke-linejoin="round" d="M 1644,5801 L 1794,5801"/>
 <path fill="none" stroke="rgb(179,179,179)" stroke-linejoin="round" d="M 1644,5139 L 1794,5139"/>
 <path fill="none" stroke="rgb(179,179,179)" stroke-linejoin="round" d="M 1644,5139 L 1794,5139"/>
 <path fill="none" stroke="rgb(179,179,179)" stroke-linejoin="round" d="M 1644,4479 L 1794,4479"/>
 <path fill="none" stroke="rgb(179,179,179)" stroke-linejoin="round" d="M 1644,4479 L 1794,4479"/>
 <path fill="none" stroke="rgb(179,179,179)" stroke-linejoin="round" d="M 1644,3817 L 1794,3817"/>
 <path fill="none" stroke="rgb(179,179,179)" stroke-linejoin="round" d="M 1644,3817 L 1794,3817"/>
 <path fill="none" stroke="rgb(179,179,179)" stroke-linejoin="round" d="M 1644,3156 L 1794,3156"/>
 <path fill="none" stroke="rgb(179,179,179)" stroke-linejoin="round" d="M 1644,3156 L 1794,3156"/>
 <path fill="none" stroke="rgb(179,179,179)" stroke-linejoin="round" d="M 1644,2494 L 1794,2494"/>
 <path fill="none" stroke="rgb(179,179,179)" stroke-linejoin="round" d="M 1644,2494 L 1794,2494"/>
 <path fill="none" stroke="rgb(179,179,179)" stroke-linejoin="round" d="M 1644,1833 L 1794,1833"/>
 <path fill="none" stroke="rgb(179,179,179)" stroke-linejoin="round" d="M 1644,1833 L 1794,1833"/>
 <path fill="none" stroke="rgb(179,179,179)" stroke-linejoin="round" d="M 1794,7124 L 1794,1833"/>
 <path fill="none" stroke="rgb(87,157,28)" stroke-width="80" stroke-linejoin="round" d="M 1925,7097 L 2056,7077 2318,7038 2842,6952 3890,6846 5987,6561 10179,5860"/>
 <path fill="rgb(87,157,28)" stroke="rgb(87,157,28)" stroke-linejoin="round" d="M 1800,7222 L 2050,7222 1925,6972 1800,7222 Z"/>
 <path fill="rgb(87,157,28)" stroke="rgb(87,157,28)" stroke-linejoin="round" d="M 1931,7202 L 2181,7202 2056,6952 1931,7202 Z"/>
 <path fill="rgb(87,157,28)" stroke="rgb(87,157,28)" stroke-linejoin="round" d="M 2193,7163 L 2443,7163 2318,6913 2193,7163 Z"/>
 <path fill="rgb(87,157,28)" stroke="rgb(87,157,28)" stroke-linejoin="round" d="M 2717,7077 L 2967,7077 2842,6827 2717,7077 Z"/>
 <path fill="rgb(87,157,28)" stroke="rgb(87,157,28)" stroke-linejoin="round" d="M 3765,6971 L 4015,6971 3890,6721 3765,6971 Z"/>
 <path fill="rgb(87,157,28)" stroke="rgb(87,157,28)" stroke-linejoin="round" d="M 5862,6686 L 6112,6686 5987,6436 5862,6686 Z"/>
 <path fill="rgb(87,157,28)" stroke="rgb(87,157,28)" stroke-linejoin="round" d="M 10054,5985 L 10304,5985 10179,5735 10054,5985 Z"/>
 <path fill="none" stroke="rgb(255,211,32)" stroke-width="80" stroke-linejoin="round" d="M 1925,7097 L 2056,7064 2318,7004 2842,6839 3890,6402 5987,5152 10179,2302"/>
 <path fill="rgb(255,211,32)" stroke="rgb(255,211,32)" stroke-linejoin="round" d="M 1800,6972 L 1925,7222 2050,6972 1800,6972 Z"/>
 <path fill="rgb(255,211,32)" stroke="rgb(255,211,32)" stroke-linejoin="round" d="M 1931,6939 L 2056,7189 2181,6939 1931,6939 Z"/>
 <path fill="rgb(255,211,32)" stroke="rgb(255,211,32)" stroke-linejoin="round" d="M 2193,6879 L 2318,7129 2443,6879 2193,6879 Z"/>
 <path fill="rgb(255,211,32)" stroke="rgb(255,211,32)" stroke-linejoin="round" d="M 2717,6714 L 2842,6964 2967,6714 2717,6714 Z"/>
 <path fill="rgb(255,211,32)" stroke="rgb(255,211,32)" stroke-linejoin="round" d="M 3765,6277 L 3890,6527 4015,6277 3765,6277 Z"/>
 <path fill="rgb(255,211,32)" stroke="rgb(255,211,32)" stroke-linejoin="round" d="M 5862,5027 L 5987,5277 6112,5027 5862,5027 Z"/>
 <path fill="rgb(255,211,32)" stroke="rgb(255,211,32)" stroke-linejoin="round" d="M 10054,2177 L 10179,2427 10304,2177 10054,2177 Z"/>
 <path fill="none" stroke="rgb(255,66,14)" stroke-width="80" stroke-linejoin="round" d="M 1925,7117 L 2056,7117 2318,7097 2842,7084 3890,7057 5987,6998 10179,6866"/>
 <path fill="rgb(255,66,14)" stroke="rgb(255,66,14)" stroke-linejoin="round" d="M 1800,7117 L 1925,7242 2050,7117 1925,6992 1800,7117 Z"/>
 <path fill="rgb(255,66,14)" stroke="rgb(255,66,14)" stroke-linejoin="round" d="M 1931,7117 L 2056,7242 2181,7117 2056,6992 1931,7117 Z"/>
 <path fill="rgb(255,66,14)" stroke="rgb(255,66,14)" stroke-linejoin="round" d="M 2193,7097 L 2318,7222 2443,7097 2318,6972 2193,7097 Z"/>
 <path fill="rgb(255,66,14)" stroke="rgb(255,66,14)" stroke-linejoin="round" d="M 2717,7084 L 2842,7209 2967,7084 2842,6959 2717,7084 Z"/>
 <path fill="rgb(255,66,14)" stroke="rgb(255,66,14)" stroke-linejoin="round" d="M 3765,7057 L 3890,7182 4015,7057 3890,6932 3765,7057 Z"/>
 <path fill="rgb(255,66,14)" stroke="rgb(255,66,14)" stroke-linejoin="round" d="M 5862,6998 L 5987,7123 6112,6998 5987,6873 5862,6998 Z"/>
 <path fill="rgb(255,66,14)" stroke="rgb(255,66,14)" stroke-linejoin="round" d="M 10054,6866 L 10179,6991 10304,6866 10179,6741 10054,6866 Z"/>
 <path fill="none" stroke="rgb(0,69,134)" stroke-width="80" stroke-linejoin="round" d="M 1925,7117 L 2056,7110 2318,7104 2842,7077 3890,7024 5987,6918 10179,6733"/>
 <path fill="rgb(0,69,134)" stroke="rgb(0,69,134)" stroke-linejoin="round" d="M 1800,6992 L 1800,7242 2050,7242 2050,6992 1800,6992 Z"/>
 <path fill="rgb(0,69,134)" stroke="rgb(0,69,134)" stroke-linejoin="round" d="M 1931,6985 L 1931,7235 2181,7235 2181,6985 1931,6985 Z"/>
 <path fill="rgb(0,69,134)" stroke="rgb(0,69,134)" stroke-linejoin="round" d="M 2193,6979 L 2193,7229 2443,7229 2443,6979 2193,6979 Z"/>
 <path fill="rgb(0,69,134)" stroke="rgb(0,69,134)" stroke-linejoin="round" d="M 2717,6952 L 2717,7202 2967,7202 2967,6952 2717,6952 Z"/>
 <path fill="rgb(0,69,134)" stroke="rgb(0,69,134)" stroke-linejoin="round" d="M 3765,6899 L 3765,7149 4015,7149 4015,6899 3765,6899 Z"/>
 <path fill="rgb(0,69,134)" stroke="rgb(0,69,134)" stroke-linejoin="round" d="M 5862,6793 L 5862,7043 6112,7043 6112,6793 5862,6793 Z"/>
 <path fill="rgb(0,69,134)" stroke="rgb(0,69,134)" stroke-linejoin="round" d="M 10054,6608 L 10054,6858 10304,6858 10304,6608 10054,6608 Z"/>
 <text class="TextShape"><tspan class="TextParagraph" font-family="Arial" font-size="353px" font-weight="400"><tspan class="TextPosition" x="1701" y="7718"><tspan fill="rgb(0,0,0)" stroke="none">0</tspan></tspan></tspan></text>
 <text class="TextShape"><tspan class="TextParagraph" font-family="Arial" font-size="353px" font-weight="400"><tspan class="TextPosition" x="3645" y="7718"><tspan fill="rgb(0,0,0)" stroke="none">5000000</tspan></tspan></tspan></text>
 <text class="TextShape"><tspan class="TextParagraph" font-family="Arial" font-size="353px" font-weight="400"><tspan class="TextPosition" x="6051" y="7718"><tspan fill="rgb(0,0,0)" stroke="none">10000000</tspan></tspan></tspan></text>
 <text class="TextShape"><tspan class="TextParagraph" font-family="Arial" font-size="353px" font-weight="400"><tspan class="TextPosition" x="8550" y="7718"><tspan fill="rgb(0,0,0)" stroke="none">15000000</tspan></tspan></tspan></text>
 <text class="TextShape"><tspan class="TextParagraph" font-family="Arial" font-size="353px" font-weight="400"><tspan class="TextPosition" x="11050" y="7718"><tspan fill="rgb(0,0,0)" stroke="none">20000000</tspan></tspan></tspan></text>
 <text class="TextShape"><tspan class="TextParagraph" font-family="Arial" font-size="353px" font-weight="400"><tspan class="TextPosition" x="1359" y="7258"><tspan fill="rgb(0,0,0)" stroke="none">0</tspan></tspan></tspan></text>
 <text class="TextShape"><tspan class="TextParagraph" font-family="Arial" font-size="353px" font-weight="400"><tspan class="TextPosition" x="1359" y="6596"><tspan fill="rgb(0,0,0)" stroke="none">1</tspan></tspan></tspan></text>
 <text class="TextShape"><tspan class="TextParagraph" font-family="Arial" font-size="353px" font-weight="400"><tspan class="TextPosition" x="1359" y="5935"><tspan fill="rgb(0,0,0)" stroke="none">2</tspan></tspan></tspan></text>
 <text class="TextShape"><tspan class="TextParagraph" font-family="Arial" font-size="353px" font-weight="400"><tspan class="TextPosition" x="1359" y="5273"><tspan fill="rgb(0,0,0)" stroke="none">3</tspan></tspan></tspan></text>
 <text class="TextShape"><tspan class="TextParagraph" font-family="Arial" font-size="353px" font-weight="400"><tspan class="TextPosition" x="1359" y="4612"><tspan fill="rgb(0,0,0)" stroke="none">4</tspan></tspan></tspan></text>
 <text class="TextShape"><tspan class="TextParagraph" font-family="Arial" font-size="353px" font-weight="400"><tspan class="TextPosition" x="1359" y="3950"><tspan fill="rgb(0,0,0)" stroke="none">5</tspan></tspan></tspan></text>
 <text class="TextShape"><tspan class="TextParagraph" font-family="Arial" font-size="353px" font-weight="400"><tspan class="TextPosition" x="1359" y="3289"><tspan fill="rgb(0,0,0)" stroke="none">6</tspan></tspan></tspan></text>
 <text class="TextShape"><tspan class="TextParagraph" font-family="Arial" font-size="353px" font-weight="400"><tspan class="TextPosition" x="1359" y="2627"><tspan fill="rgb(0,0,0)" stroke="none">7</tspan></tspan></tspan></text>
 <text class="TextShape"><tspan class="TextParagraph" font-family="Arial" font-size="353px" font-weight="400"><tspan class="TextPosition" x="1359" y="1966"><tspan fill="rgb(0,0,0)" stroke="none">8</tspan></tspan></tspan></text>
 <text class="TextShape"><tspan class="TextParagraph" font-family="Arial" font-size="459px" font-weight="400"><tspan class="TextPosition" x="6955" y="838"><tspan fill="rgb(0,0,0)" stroke="none">Interleaved</tspan></tspan></tspan></text>
 <path fill="none" stroke="rgb(0,69,134)" stroke-width="80" stroke-linejoin="round" d="M 13289,3700 L 14089,3700"/>
 <path fill="rgb(0,69,134)" stroke="rgb(0,69,134)" stroke-linejoin="round" d="M 13583,3595 L 13583,3805 13794,3805 13794,3595 13583,3595 Z"/>
 <path fill="none" stroke="rgb(255,66,14)" stroke-width="80" stroke-linejoin="round" d="M 13289,4224 L 14089,4224"/>
 <path fill="rgb(255,66,14)" stroke="rgb(255,66,14)" stroke-linejoin="round" d="M 13583,4224 L 13689,4329 13794,4224 13689,4119 13583,4224 Z"/>
 <path fill="none" stroke="rgb(255,211,32)" stroke-width="80" stroke-linejoin="round" d="M 13289,4747 L 14089,4747"/>
 <path fill="rgb(255,211,32)" stroke="rgb(255,211,32)" stroke-linejoin="round" d="M 13583,4642 L 13689,4852 13794,4642 13583,4642 Z"/>
 <path fill="none" stroke="rgb(87,157,28)" stroke-width="80" stroke-linejoin="round" d="M 13289,5271 L 14089,5271"/>
 <path fill="rgb(87,157,28)" stroke="rgb(87,157,28)" stroke-linejoin="round" d="M 13583,5376 L 13794,5376 13689,5166 13583,5376 Z"/>
 <text class="TextShape"><tspan class="TextParagraph" font-family="Arial" font-size="353px" font-weight="400"><tspan class="TextPosition" x="14189" y="3833"><tspan fill="rgb(0,0,0)" stroke="none">VEB</tspan></tspan></tspan></text>
 <text class="TextShape"><tspan class="TextParagraph" font-family="Arial" font-size="353px" font-weight="400"><tspan class="TextPosition" x="14189" y="4357"><tspan fill="rgb(0,0,0)" stroke="none">Bitsmart</tspan></tspan></tspan></text>
 <text class="TextShape"><tspan class="TextParagraph" font-family="Arial" font-size="353px" font-weight="400"><tspan class="TextPosition" x="14189" y="4880"><tspan fill="rgb(0,0,0)" stroke="none">Binary</tspan></tspan></tspan></text>
 <text class="TextShape"><tspan class="TextParagraph" font-family="Arial" font-size="353px" font-weight="400"><tspan class="TextPosition" x="14189" y="5404"><tspan fill="rgb(0,0,0)" stroke="none">Fibonacci</tspan></tspan></tspan></text>
 <text class="TextShape"><tspan class="TextParagraph" font-family="Arial" font-size="318px" font-weight="400"><tspan class="TextPosition" x="6139" y="8393"><tspan fill="rgb(0,0,0)" stroke="none">Operations</tspan></tspan></tspan></text>
 <text class="TextShape"><tspan class="TextParagraph" font-family="Arial" font-size="318px" font-weight="400"><tspan class="TextPosition" x="864" y="5357" transform="translate(864,5357) rotate(-90) translate(-864,-5357)"><tspan fill="rgb(0,0,0)" stroke="none">Seconds</tspan></tspan></tspan></text>
</svg>