<?xml version="1.0" encoding="UTF-8"?>
<!DOCTYPE svg PUBLIC "-//W3C//DTD SVG 1.1//EN" "http://www.w3.org/Graphics/SVG/1.1/DTD/svg11.dtd">
<svg width="160mm" height="90mm" viewBox="0 0 16000 9000">
 <path fill="rgb(255,255,255)" stroke="none" d="M 8000,8999 L 0,8999 0,0 15999,0 15999,8999 8000,8999 Z"/>
 <path fill="none" stroke="rgb(179,179,179)" stroke-linejoin="round" d="M 7004,7138 L 1979,7138 1979,1847 12029,1847 12029,7138 7004,7138 Z"/>
 <path fill="none" stroke="rgb(179,179,179)" stroke-linejoin="round" d="M 12029,7137 L 1979,7137"/>
 <path fill="none" stroke="rgb(179,179,179)" stroke-linejoin="round" d="M 12029,6255 L 1979,6255"/>
 <path fill="none" stroke="rgb(179,179,179)" stroke-linejoin="round" d="M 12029,5373 L 1979,5373"/>
 <path fill="none" stroke="rgb(179,179,179)" stroke-linejoin="round" d="M 12029,4492 L 1979,4492"/>
 <path fill="none" stroke="rgb(179,179,179)" stroke-linejoin="round" d="M 12029,3610 L 1979,3610"/>
 <path fill="none" stroke="rgb(179,179,179)" stroke-linejoin="round" d="M 12029,2728 L 1979,2728"/>
 <path fill="none" stroke="rgb(179,179,179)" stroke-linejoin="round" d="M 12029,1846 L 1979,1846"/>
 <path fill="none" stroke="rgb(179,179,179)" stroke-linejoin="round" d="M 1979,7287 L 1979,7137"/>
 <path fill="none" stroke="rgb(179,179,179)" stroke-linejoin="round" d="M 1979,7287 L 1979,7137"/>
 <path fill="none" stroke="rgb(179,179,179)" stroke-linejoin="round" d="M 4491,7287 L 4491,7137"/>
 <path fill="none" stroke="rgb(179,179,179)" stroke-linejoin="round" d="M 4491,7287 L 4491,7137"/>
 <path fill="none" stroke="rgb(179,179,179)" stroke-linejoin="round" d="M 7004,7287 L 7004,7137"/>
 <path fill="none" stroke="rgb(179,179,179)" stroke-linejoin="round" d="M 7004,7287 L 7004,7137"/>
 <path fill="none" stroke="rgb(179,179,179)" stroke-linejoin="round" d="M 9516,7287 L 9516,7137"/>
 <path fill="none" stroke="rgb(179,179,179)" stroke-linejoin="round" d="M 9516,7287 L 9516,7137"/>
 <path fill="none" stroke="rgb(179,179,179)" stroke-linejoin="round" d="M 12029,7287 L 12029,7137"/>
 <path fill="none" stroke="rgb(179,179,179)" stroke-linejoin="round" d="M 12029,7287 L 12029,7137"/>
 <path fill="none" stroke="rgb(179,179,179)" stroke-linejoin="round" d="M 1979,7137 L 12029,7137"/>
 <path fill="none" stroke="rgb(179,179,179)" stroke-linejoin="round" d="M 1829,7137 L 1979,7137"/>
 <path fill="none" stroke="rgb(179,179,179)" stroke-linejoin="round" d="M 1829,7137 L 1979,7137"/>
 <path fill="none" stroke="rgb(179,179,179)" stroke-linejoin="round" d="M 1829,6255 L 1979,6255"/>
 <path fill="none" stroke="rgb(179,179,179)" stroke-linejoin="round" d="M 1829,6255 L 1979,6255"/>
 <path fill="none" stroke="rgb(179,179,179)" stroke-linejoin="round" d="M 1829,5373 L 1979,5373"/>
 <path fill="none" stroke="rgb(179,179,179)" stroke-linejoin="round" d="M 1829,5373 L 1979,5373"/>
 <path fill="none" stroke="rgb(179,179,179)" stroke-linejoin="round" d="M 1829,4492 L 1979,4492"/>
 <path fill="none" stroke="rgb(179,179,179)" stroke-linejoin="round" d="M 1829,4492 L 1979,4492"/>
 <path fill="none" stroke="rgb(179,179,179)" stroke-linejoin="round" d="M 1829,3610 L 1979,3610"/>
 <path fill="none" stroke="rgb(179,179,179)" stroke-linejoin="round" d="M 1829,3610 L 1979,3610"/>
 <path fill="none" stroke="rgb(179,179,179)" stroke-linejoin="round" d="M 1829,2728 L 1979,2728"/>
 <path fill="none" stroke="rgb(179,179,179)" stroke-linejoin="round" d="M 1829,2728 L 1979,2728"/>
 <path fill="none" stroke="rgb(179,179,179)" stroke-linejoin="round" d="M 1829,1846 L 1979,1846"/>
 <path fill="none" stroke="rgb(179,179,179)" stroke-linejoin="round" d="M 1829,1846 L 1979,1846"/>
 <path fill="none" stroke="rgb(179,179,179)" stroke-linejoin="round" d="M 1979,7137 L 1979,1846"/>
 <path fill="none" stroke="rgb(255,211,32)" stroke-width="80" stroke-linejoin="round" d="M 2110,7110 L 2242,7068 2505,6964 3032,6731 4086,6203 6194,5050 10409,2456"/>
 <path fill="rgb(255,211,32)" stroke="rgb(255,211,32)" stroke-linejoin="round" d="M 1985,6985 L 2110,7235 2235,6985 1985,6985 Z"/>
 <path fill="rgb(255,211,32)" stroke="rgb(255,211,32)" stroke-linejoin="round" d="M 2117,6943 L 2242,7193 2367,6943 2117,6943 Z"/>
 <path fill="rgb(255,211,32)" stroke="rgb(255,211,32)" stroke-linejoin="round" d="M 2380,6839 L 2505,7089 2630,6839 2380,6839 Z"/>
 <path fill="rgb(255,211,32)" stroke="rgb(255,211,32)" stroke-linejoin="round" d="M 2907,6606 L 3032,6856 3157,6606 2907,6606 Z"/>
 <path fill="rgb(255,211,32)" stroke="rgb(255,211,32)" stroke-linejoin="round" d="M 3961,6078 L 4086,6328 4211,6078 3961,6078 Z"/>
 <path fill="rgb(255,211,32)" stroke="rgb(255,211,32)" stroke-linejoin="round" d="M 6069,4925 L 6194,5175 6319,4925 6069,4925 Z"/>
 <path fill="rgb(255,211,32)" stroke="rgb(255,211,32)" stroke-linejoin="round" d="M 10284,2331 L 10409,2581 10534,2331 10284,2331 Z"/>
 <path fill="none" stroke="rgb(255,66,14)" stroke-width="80" stroke-linejoin="round" d="M 2110,7129 L 2242,7119 2505,7096 3032,7031 4086,6888 6194,6595 10409,5958"/>
 <path fill="rgb(255,66,14)" stroke="rgb(255,66,14)" stroke-linejoin="round" d="M 1985,7129 L 2110,7254 2235,7129 2110,7004 1985,7129 Z"/>
 <path fill="rgb(255,66,14)" stroke="rgb(255,66,14)" stroke-linejoin="round" d="M 2117,7119 L 2242,7244 2367,7119 2242,6994 2117,7119 Z"/>
 <path fill="rgb(255,66,14)" stroke="rgb(255,66,14)" stroke-linejoin="round" d="M 2380,7096 L 2505,7221 2630,7096 2505,6971 2380,7096 Z"/>
 <path fill="rgb(255,66,14)" stroke="rgb(255,66,14)" stroke-linejoin="round" d="M 2907,7031 L 3032,7156 3157,7031 3032,6906 2907,7031 Z"/>
 <path fill="rgb(255,66,14)" stroke="rgb(255,66,14)" stroke-linejoin="round" d="M 3961,6888 L 4086,7013 4211,6888 4086,6763 3961,6888 Z"/>
 <path fill="rgb(255,66,14)" stroke="rgb(255,66,14)" stroke-linejoin="round" d="M 6069,6595 L 6194,6720 6319,6595 6194,6470 6069,6595 Z"/>
 <path fill="rgb(255,66,14)" stroke="rgb(255,66,14)" stroke-linejoin="round" d="M 10284,5958 L 10409,6083 10534,5958 10409,5833 10284,5958 Z"/>
 <path fill="none" stroke="rgb(0,69,134)" stroke-width="80" stroke-linejoin="round" d="M 2110,7114 L 2242,7084 2505,7018 3032,6881 4086,6590 6194,5979 10409,4660"/>
 <path fill="rgb(0,69,134)" stroke="rgb(0,69,134)" stroke-linejoin="round" d="M 1985,6989 L 1985,7239 2235,7239 2235,6989 1985,6989 Z"/>
 <path fill="rgb(0,69,134)" stroke="rgb(0,69,134)" stroke-linejoin="round" d="M 2117,6959 L 2117,7209 2367,7209 2367,6959 2117,6959 Z"/>
 <path fill="rgb(0,69,134)" stroke="rgb(0,69,134)" stroke-linejoin="round" d="M 2380,6893 L 2380,7143 2630,7143 2630,6893 2380,6893 Z"/>
 <path fill="rgb(0,69,134)" stroke="rgb(0,69,134)" stroke-linejoin="round" d="M 2907,6756 L 2907,7006 3157,7006 3157,6756 2907,6756 Z"/>
 <path fill="rgb(0,69,134)" stroke="rgb(0,69,134)" stroke-linejoin="round" d="M 3961,6465 L 3961,6715 4211,6715 4211,6465 3961,6465 Z"/>
 <path fill="rgb(0,69,134)" stroke="rgb(0,69,134)" stroke-linejoin="round" d="M 6069,5854 L 6069,6104 6319,6104 6319,5854 6069,5854 Z"/>
 <path fill="rgb(0,69,134)" stroke="rgb(0,69,134)" stroke-linejoin="round" d="M 10284,4535 L 10284,4785 10534,4785 10534,4535 10284,4535 Z"/>
 <text class="TextShape"><tspan class="TextParagraph" font-family="Arial" font-size="353px" font-weight="400"><tspan class="TextPosition" x="1886" y="7731"><tspan fill="rgb(0,0,0)" stroke="none">0</tspan></tspan></tspan></text>
 <text class="TextShape"><tspan class="TextParagraph" font-family="Arial" font-size="353px" font-weight="400"><tspan class="TextPosition" x="3843" y="7731"><tspan fill="rgb(0,0,0)" stroke="none">5000000</tspan></tspan></tspan></text>
 <text class="TextShape"><tspan class="TextParagraph" font-family="Arial" font-size="353px" font-weight="400"><tspan class="TextPosition" x="6263" y="7731"><tspan fill="rgb(0,0,0)" stroke="none">10000000</tspan></tspan></tspan></text>
 <text class="TextShape"><tspan class="TextParagraph" font-family="Arial" font-size="353px" font-weight="400"><tspan class="TextPosition" x="8776" y="7731"><tspan fill="rgb(0,0,0)" stroke="none">15000000</tspan></tspan></tspan></text>
 <text class="TextShape"><tspan class="TextParagraph" font-family="Arial" font-size="353px" font-weight="400"><tspan class="TextPosition" x="11289" y="7731"><tspan fill="rgb(0,0,0)" stroke="none">20000000</tspan></tspan></tspan></text>
 <text class="TextShape"><tspan class="TextParagraph" font-family="Arial" font-size="353px" font-weight="400"><tspan class="TextPosition" x="1544" y="7271"><tspan fill="rgb(0,0,0)" stroke="none">0</tspan></tspan></tspan></text>
 <text class="TextShape"><tspan class="TextParagraph" font-family="Arial" font-size="353px" font-weight="400"><tspan class="TextPosition" x="1544" y="6389"><tspan fill="rgb(0,0,0)" stroke="none">5</tspan></tspan></tspan></text>
 <text class="TextShape"><tspan class="TextParagraph" font-family="Arial" font-size="353px" font-weight="400"><tspan class="TextPosition" x="1359" y="5507"><tspan fill="rgb(0,0,0)" stroke="none">10</tspan></tspan></tspan></text>
 <text class="TextShape"><tspan class="TextParagraph" font-family="Arial" font-size="353px" font-weight="400"><tspan class="TextPosition" x="1359" y="4625"><tspan fill="rgb(0,0,0)" stroke="none">15</tspan></tspan></tspan></text>
 <text class="TextShape"><tspan class="TextParagraph" font-family="Arial" font-size="353px" font-weight="400"><tspan class="TextPosition" x="1359" y="3743"><tspan fill="rgb(0,0,0)" stroke="none">20</tspan></tspan></tspan></text>
 <text class="TextShape"><tspan class="TextParagraph" font-family="Arial" font-size="353px" font-weight="400"><tspan class="TextPosition" x="1359" y="2861"><tspan fill="rgb(0,0,0)" stroke="none">25</tspan></tspan></tspan></text>
 <text class="TextShape"><tspan class="TextParagraph" font-family="Arial" font-size="353px" font-weight="400"><tspan class="TextPosition" x="1359" y="1979"><tspan fill="rgb(0,0,0)" stroke="none">30</tspan></tspan></tspan></text>
 <text class="TextShape"><tspan class="TextParagraph" font-family="Arial" font-size="459px" font-weight="400"><tspan class="TextPosition" x="5513" y="851"><tspan fill="rgb(0,0,0)" stroke="none">Search Trees, Interleaved</tspan></tspan></tspan></text>
 <path fill="none" stroke="rgb(0,69,134)" stroke-width="80" stroke-linejoin="round" d="M 13527,3975 L 14327,3975"/>
 <path fill="rgb(0,69,134)" stroke="rgb(0,69,134)" stroke-linejoin="round" d="M 13821,3870 L 13821,4080 14032,4080 14032,3870 13821,3870 Z"/>
 <path fill="none" stroke="rgb(255,66,14)" stroke-width="80" stroke-linejoin="round" d="M 13527,4499 L 14327,4499"/>
 <path fill="rgb(255,66,14)" stroke="rgb(255,66,14)" stroke-linejoin="round" d="M 13821,4499 L 13927,4603 14032,4499 13927,4394 13821,4499 Z"/>
 <path fill="none" stroke="rgb(255,211,32)" stroke-width="80" stroke-linejoin="round" d="M 13527,5022 L 14327,5022"/>
 <path fill="rgb(255,211,32)" stroke="rgb(255,211,32)" stroke-linejoin="round" d="M 13821,4917 L 13927,5127 14032,4917 13821,4917 Z"/>
 <text class="TextShape"><tspan class="TextParagraph" font-family="Arial" font-size="353px" font-weight="400"><tspan class="TextPosition" x="14427" y="4108"><tspan fill="rgb(0,0,0)" stroke="none">VEB</tspan></tspan></tspan></text>
 <text class="TextShape"><tspan class="TextParagraph" font-family="Arial" font-size="353px" font-weight="400"><tspan class="TextPosition" x="14427" y="4631"><tspan fill="rgb(0,0,0)" stroke="none">bitsmart</tspan></tspan></tspan></text>
 <text class="TextShape"><tspan class="TextParagraph" font-family="Arial" font-size="353px" font-weight="400"><tspan class="TextPosition" x="14427" y="5155"><tspan fill="rgb(0,0,0)" stroke="none">std::set</tspan></tspan></tspan></text>
 <text class="TextShape"><tspan class="TextParagraph" font-family="Arial" font-size="318px" font-weight="400"><tspan class="TextPosition" x="6258" y="8406"><tspan fill="rgb(0,0,0)" stroke="none">Operations</tspan></tspan></tspan></text>
 <text class="TextShape"><tspan class="TextParagraph" font-family="Arial" font-size="318px" font-weight="400"><tspan class="TextPosition" x="864" y="5370" transform="translate(864,5370) rotate(-90) translate(-864,-5370)"><tspan fill="rgb(0,0,0)" stroke="none">Seconds</tspan></tspan></tspan></text>
</svg>